<?xml version="1.0" encoding="UTF-8" standalone="no"?>
<svg xmlns:dc="http://purl.org/dc/elements/1.1/" xmlns:cc="http://creativecommons.org/ns#"
  xmlns:rdf="http://www.w3.org/1999/02/22-rdf-syntax-ns#" xmlns:svg="http://www.w3.org/2000/svg"
  xmlns="http://www.w3.org/2000/svg" viewBox="0 0 255.46001 255.88933" height="255.88933" width="255.46001"
  xml:space="preserve" id="svg2" version="1.1">
  <metadata id="metadata8">
    <rdf:RDF>
      <cc:Work rdf:about="">
        <dc:format>image/svg+xml</dc:format>
        <dc:type rdf:resource="http://purl.org/dc/dcmitype/StillImage" />
      </cc:Work>
    </rdf:RDF>
  </metadata>
  <defs id="defs6">
    <clipPath id="clipPath20" clipPathUnits="userSpaceOnUse">
      <path id="path18" d="M 0,191.917 H 191.595 V 0 H 0 Z" />
    </clipPath>
  </defs>
  <g transform="matrix(1.3333333,0,0,-1.3333333,0,255.88933)" id="g10">
    <path id="path12" style="fill:#C98BDB;fill-opacity:1;fill-rule:nonzero;stroke:none"
      d="M 0,0 H 191.595 V 191.917 H 0 Z" />
    <g id="g14">
      <g clip-path="url(#clipPath20)" id="g16">
        <g transform="translate(21.625,57.3271)" id="g22">
          <path id="path24" style="fill:#ffffff;fill-opacity:1;fill-rule:nonzero;stroke:none"
            d="m 0,0 c 3.587,-3.134 8.388,-5.711 14.402,-7.731 6.013,-2.022 11.723,-3.032 17.13,-3.032 16.473,0 24.71,5.861 24.71,17.585 0,3.284 -0.885,6.241 -2.653,8.868 -1.769,2.627 -4.194,4.952 -7.276,6.974 -3.083,2.02 -8.869,5.128 -17.358,9.323 C 17.18,37.848 9.424,43.292 5.685,48.321 1.945,53.349 0.076,59.097 0.076,65.565 c 0,9.752 3.915,17.484 11.749,23.195 7.832,5.71 17.71,8.565 29.636,8.565 11.673,0 20.239,-1.415 25.696,-4.245 V 76.556 c -7.075,4.901 -16.019,7.353 -26.832,7.353 -7.177,0 -13.026,-1.504 -17.548,-4.51 -4.523,-3.007 -6.783,-7.19 -6.783,-12.545 0,-4.75 1.565,-8.616 4.699,-11.597 3.133,-2.982 9.93,-7.049 20.39,-12.203 11.521,-5.509 19.581,-11.017 24.179,-16.525 4.598,-5.508 6.898,-11.698 6.898,-18.57 0,-10.309 -3.74,-18.218 -11.218,-23.725 -7.48,-5.508 -17.864,-8.262 -31.153,-8.262 -4.65,0 -10.07,0.644 -16.259,1.933 -6.191,1.288 -10.7,2.892 -13.53,4.813 z" />
        </g>
        <g transform="translate(118.7675,73.6997)" id="g26">
          <path id="path28" style="fill:#ffffff;fill-opacity:1;fill-rule:nonzero;stroke:none"
            d="m 0,0 c 0,-7.731 2.059,-14.352 6.178,-19.859 4.118,-5.509 9.588,-8.262 16.41,-8.262 6.468,0 11.723,2.374 15.766,7.125 4.042,4.749 6.064,10.864 6.064,18.343 0,8.084 -1.908,14.376 -5.723,18.874 -3.816,4.497 -9.236,6.746 -16.258,6.746 -6.671,0 -12.079,-2.274 -16.221,-6.822 C 2.072,11.597 0,6.215 0,0 M 52.149,63.898 C 46.035,67.03 39.643,68.597 32.972,68.597 22.815,68.597 14.654,64.175 8.49,55.333 2.324,46.489 -0.809,34.412 -0.909,19.101 h 0.379 c 5.558,10.763 14.426,16.145 26.605,16.145 10.157,0 18.267,-3.31 24.331,-9.93 6.064,-6.62 9.096,-15.413 9.096,-26.377 0,-11.472 -3.5,-20.896 -10.498,-28.273 -7,-7.378 -15.931,-11.066 -26.795,-11.066 -11.926,0 -21.288,4.661 -28.083,13.984 -6.797,9.324 -10.195,22.55 -10.195,39.681 0,20.717 4.459,37.179 13.379,49.382 8.918,12.204 20.654,18.305 35.208,18.305 8.337,0 14.881,-1.137 19.631,-3.41 z" />
        </g>
      </g>
    </g>
  </g>
</svg>