<?xml version="1.0" encoding="UTF-8" standalone="no"?>
<svg
   version="1.1"
   id="svg2"
   xml:space="preserve"
   width="255.46001"
   height="255.88933"
   viewBox="0 0 255.46001 255.88933"
   sodipodi:docname="NJM_Line_S9_icon.svg"
   inkscape:version="1.2 (dc2aedaf03, 2022-05-15)"
   xmlns:inkscape="http://www.inkscape.org/namespaces/inkscape"
   xmlns:sodipodi="http://sodipodi.sourceforge.net/DTD/sodipodi-0.dtd"
   xmlns="http://www.w3.org/2000/svg"
   xmlns:svg="http://www.w3.org/2000/svg"
   xmlns:rdf="http://www.w3.org/1999/02/22-rdf-syntax-ns#"
   xmlns:cc="http://creativecommons.org/ns#"
   xmlns:dc="http://purl.org/dc/elements/1.1/"><metadata
     id="metadata8"><rdf:RDF><cc:Work
         rdf:about=""><dc:format>image/svg+xml</dc:format><dc:type
           rdf:resource="http://purl.org/dc/dcmitype/StillImage" /></cc:Work></rdf:RDF></metadata><defs
     id="defs6"><clipPath
       clipPathUnits="userSpaceOnUse"
       id="clipPath20"><path
         d="M 0,191.917 H 191.595 V 0 H 0 Z"
         id="path18" /></clipPath></defs><sodipodi:namedview
     pagecolor="#ffffff"
     bordercolor="#666666"
     borderopacity="1"
     objecttolerance="10"
     gridtolerance="10"
     guidetolerance="10"
     inkscape:pageopacity="0"
     inkscape:pageshadow="2"
     inkscape:window-width="1920"
     inkscape:window-height="991"
     id="namedview4"
     inkscape:showpageshadow="2"
     inkscape:pagecheckerboard="0"
     inkscape:deskcolor="#d1d1d1"
     showgrid="false"
     inkscape:zoom="3.2670374"
     inkscape:cx="127.79162"
     inkscape:cy="128.09771"
     inkscape:window-x="-9"
     inkscape:window-y="-9"
     inkscape:window-maximized="1"
     inkscape:current-layer="g10" /><g
     id="g10"
     inkscape:groupmode="layer"
     inkscape:label="LineS8"
     transform="matrix(1.3333333,0,0,-1.3333333,0,255.88933)"><path
       d="M 0,0 H 191.595 V 191.917 H 0 Z"
       style="fill:#f5c01b;fill-opacity:1;fill-rule:nonzero;stroke:none"
       id="path12" /><g
       id="g14"
       transform="translate(-3.3746995,1.9496514)"><g
         id="g16"
         clip-path="url(#clipPath20)"><g
           id="g22"
           transform="translate(22.1352,57.3271)"><path
             d="m 0,0 c 3.587,-3.134 8.388,-5.711 14.402,-7.731 6.013,-2.022 11.723,-3.032 17.13,-3.032 16.473,0 24.71,5.861 24.71,17.585 0,3.284 -0.885,6.241 -2.653,8.868 -1.769,2.627 -4.194,4.952 -7.276,6.974 -3.083,2.02 -8.869,5.128 -17.358,9.323 C 17.18,37.848 9.424,43.292 5.685,48.321 1.945,53.349 0.076,59.097 0.076,65.565 c 0,9.752 3.915,17.484 11.749,23.195 7.832,5.71 17.71,8.565 29.636,8.565 11.673,0 20.239,-1.415 25.696,-4.245 V 76.556 c -7.075,4.901 -16.019,7.353 -26.832,7.353 -7.177,0 -13.026,-1.504 -17.548,-4.51 -4.523,-3.007 -6.783,-7.19 -6.783,-12.545 0,-4.75 1.565,-8.616 4.699,-11.597 3.133,-2.982 9.93,-7.049 20.39,-12.203 11.521,-5.509 19.581,-11.017 24.179,-16.525 4.598,-5.508 6.898,-11.698 6.898,-18.57 0,-10.309 -3.74,-18.218 -11.218,-23.725 -7.48,-5.508 -17.864,-8.262 -31.153,-8.262 -4.65,0 -10.07,0.644 -16.259,1.933 -6.191,1.288 -10.7,2.892 -13.53,4.813 z"
             style="fill:#ffffff;fill-opacity:1;fill-rule:nonzero;stroke:none"
             id="path24" /></g><g
           id="g26"
           transform="translate(116.8525,117.0561)"><path
             d="m 0,0 c 0,-7.883 2.021,-14.136 6.064,-18.76 4.042,-4.624 9.626,-6.935 16.751,-6.935 6.164,0 11.344,2.109 15.539,6.329 4.193,4.218 6.291,9.335 6.291,15.349 0,8.438 -2.084,15.425 -6.253,20.958 -4.169,5.533 -9.664,8.3 -16.486,8.3 C 15.588,25.241 10.358,22.84 6.215,18.04 2.071,13.239 0,7.226 0,0 m -8.565,-65.869 c 6.467,-3.74 13.441,-5.609 20.92,-5.609 10.51,0 18.658,4.143 24.445,12.431 5.785,8.287 8.679,20.061 8.679,35.322 -0.102,-0.102 -0.203,-0.102 -0.303,0 -5.155,-9.804 -13.822,-14.705 -25.999,-14.705 -9.854,0 -18.015,3.385 -24.483,10.158 -6.469,6.77 -9.702,15.563 -9.702,26.377 0,11.521 3.536,20.983 10.612,28.387 7.074,7.402 16.245,11.104 27.514,11.104 11.674,0 20.794,-4.586 27.363,-13.758 6.569,-9.171 9.854,-22.525 9.854,-40.059 0,-21.678 -4.244,-38.354 -12.734,-50.027 -8.489,-11.672 -20.238,-17.509 -35.246,-17.509 -8.237,0 -15.21,1.34 -20.92,4.017 z"
             style="fill:#ffffff;fill-opacity:1;fill-rule:nonzero;stroke:none"
             id="path28" /></g></g></g></g></svg>
