<svg id="图层_7" data-name="图层 7" xmlns="http://www.w3.org/2000/svg" viewBox="0 0 139.82 160.01">
    <defs>
        <style>
            .cls-1 {
                fill: #c8c9c9;
            }

            .cls-10,
            .cls-13,
            .cls-16,
            .cls-2,
            .cls-6,
            .cls-7,
            .cls-9 {
                fill: none;
                stroke-miterlimit: 10;
            }

            .cls-10,
            .cls-13,
            .cls-2,
            .cls-7,
            .cls-9 {
                stroke: #221714;
            }

            .cls-3 {
                fill: #ffc600;
            }

            .cls-4 {
                fill: #3d3a39;
            }

            .cls-5 {
                fill: #727171;
            }

            .cls-6 {
                stroke: #727171;
                stroke-width: 0.8px;
            }

            .cls-7 {
                stroke-width: 0.75px;
            }

            .cls-8 {
                fill: #9e9f9f;
            }

            .cls-9 {
                stroke-width: 0.5px;
            }

            .cls-10 {
                stroke-width: 0.47px;
            }

            .cls-11 {
                fill: #595757;
            }

            .cls-12 {
                fill: #dbdcdc;
            }

            .cls-13 {
                stroke-width: 0.25px;
            }

            .cls-14 {
                fill: #888;
            }

            .cls-15 {
                fill: #bf1626;
            }

            .cls-16 {
                stroke: #3d3a39;
                stroke-width: 0.49px;
            }

            .cls-17 {
                fill: #f6f7f7;
            }
        </style>
    </defs>
    <title>萝S9车头</title>
    <path class="cls-1"
        d="M232.84,212.58c.1-1.09.25-2.89.33-4l1.92-27.29c.08-1.1.13-2.82.12-3.82s-.08-2.73-.15-3.83l-.2-2.77c-.07-1.1-.23-2.89-.36-4L228.76,115c-.12-1.09-.32-2.88-.45-4l-1.54-13.18a14.27,14.27,0,0,0-.66-3c-.24-.56-.86-1.81-1.39-2.78l-.13-.25a12.36,12.36,0,0,0-2.51-3l-1.62-1.34a16.87,16.87,0,0,0-3.39-2l-2.31-1A35.74,35.74,0,0,0,211,83.19l-3.58-.94-3.87-1L198,79.82c-1.07-.28-2.83-.64-3.91-.81l-9.67-1.52c-1.09-.17-2.87-.38-4-.45l-6.71-.47c-1.09-.07-2.89-.16-4-.19l-1.77,0c-1.1,0-2.9,0-4,0l-2,0c-1.09,0-2.89.12-4,.19l-6.7.47c-1.1.07-2.89.28-4,.45L137.66,79c-1.09.17-2.85.53-3.91.81l-5.53,1.42-3.87,1-3.59.94A36.53,36.53,0,0,0,117,84.47l-2.31,1a16.68,16.68,0,0,0-3.39,2l-1.62,1.34a12.1,12.1,0,0,0-2.5,3l-.14.25c-.52,1-1.15,2.22-1.39,2.78a14.88,14.88,0,0,0-.67,3l-1.64,13.19c-.14,1.09-.35,2.88-.47,4l-5.74,51.88c-.13,1.09-.29,2.88-.36,4l-.2,2.77c-.07,1.1-.14,2.82-.15,3.83s0,2.72.12,3.82l1.92,27.29c.08,1.09.21,2.89.29,4l.32,4.36c.08,1.1.23,2.89.32,4l1,12.56a2,2,0,0,0,2.15,1.81l34.9-3.19a7.84,7.84,0,0,0,3.39-1.23,5.74,5.74,0,0,0,1.79-3l4-20.28.41-2c0-.05,0-.09.06-.09h37.48a.17.17,0,0,1,0,.1l.38,2.07L189,228.57a4.9,4.9,0,0,0,1.6,2.8,8.36,8.36,0,0,0,3.23,1l34.88,2.88a2,2,0,0,0,2.19-1.82Z"
        transform="translate(-95.9 -75.81)" />
    <path class="cls-2"
        d="M232.84,212.58c.1-1.09.25-2.89.33-4l1.92-27.29c.08-1.1.13-2.82.12-3.82s-.08-2.73-.15-3.83l-.2-2.77c-.07-1.1-.23-2.89-.36-4L228.76,115c-.12-1.09-.32-2.88-.45-4l-1.54-13.18a14.27,14.27,0,0,0-.66-3c-.24-.56-.86-1.81-1.39-2.78l-.13-.25a12.36,12.36,0,0,0-2.51-3l-1.62-1.34a16.87,16.87,0,0,0-3.39-2l-2.31-1A35.74,35.74,0,0,0,211,83.19l-3.58-.94-3.87-1L198,79.82c-1.07-.28-2.83-.64-3.91-.81l-9.67-1.52c-1.09-.17-2.87-.38-4-.45l-6.71-.47c-1.09-.07-2.89-.16-4-.19l-1.77,0c-1.1,0-2.9,0-4,0l-2,0c-1.09,0-2.89.12-4,.19l-6.7.47c-1.1.07-2.89.28-4,.45L137.66,79c-1.09.17-2.85.53-3.91.81l-5.53,1.42-3.87,1-3.59.94A36.53,36.53,0,0,0,117,84.47l-2.31,1a16.68,16.68,0,0,0-3.39,2l-1.62,1.34a12.1,12.1,0,0,0-2.5,3l-.14.25c-.52,1-1.15,2.22-1.39,2.78a14.88,14.88,0,0,0-.67,3l-1.64,13.19c-.14,1.09-.35,2.88-.47,4l-5.74,51.88c-.13,1.09-.29,2.88-.36,4l-.2,2.77c-.07,1.1-.14,2.82-.15,3.83s0,2.72.12,3.82l1.92,27.29c.08,1.09.21,2.89.29,4l.32,4.36c.08,1.1.23,2.89.32,4l1,12.56a2,2,0,0,0,2.15,1.81l34.9-3.19a7.84,7.84,0,0,0,3.39-1.23,5.74,5.74,0,0,0,1.79-3l4-20.28.41-2c0-.05,0-.09.06-.09h37.48a.17.17,0,0,1,0,.1l.38,2.07L189,228.57a4.9,4.9,0,0,0,1.6,2.8,8.36,8.36,0,0,0,3.23,1l34.88,2.88a2,2,0,0,0,2.19-1.82Z"
        transform="translate(-95.9 -75.81)" />
    <path class="cls-3"
        d="M225.47,93.32a4.89,4.89,0,0,1,.28,3.62l-3,8c-.39,1-1,2.73-1.32,3.78l-2.2,6.86c-.34,1-.85,2.77-1.15,3.83l-2.17,7.89c-.29,1.06-.76,2.8-1,3.86l-1.59,6c-.28,1.06-.83,2.77-1.23,3.8l-4.14,10.68c-.4,1-1.12,2.67-1.61,3.66l-3.81,7.7c-.48,1-1.36,2.56-1.93,3.49l-11.16,18.07a25,25,0,0,1-2.41,3.17l-1.75,1.89a23.35,23.35,0,0,1-3,2.64l-2.4,1.73a19,19,0,0,1-3.49,1.89L176,196a19,19,0,0,1-3.85,1l-1.89.23c-1.09.14-2.54.29-3.22.34a17.47,17.47,0,0,1-2.29,0c-.58,0-1.94-.2-3-.34l-1.89-.23a19,19,0,0,1-3.85-1l-.35-.14a19.63,19.63,0,0,1-3.49-1.89l-2.4-1.73a24,24,0,0,1-3-2.64L145,187.75a24,24,0,0,1-2.4-3.17l-11.16-18.07c-.58-.93-1.45-2.51-1.94-3.49l-3.81-7.7c-.49-1-1.21-2.64-1.61-3.66L120,141c-.4-1-.95-2.74-1.23-3.8l-1.59-6c-.28-1.06-.74-2.8-1-3.86l-2.17-7.89c-.29-1.06-.81-2.79-1.15-3.83l-2.2-6.86c-.34-1-.93-2.75-1.32-3.78l-3-8a5.19,5.19,0,0,1,.2-3.66l.74-1.43a10.76,10.76,0,0,1,2.5-3l2.17-1.68a15.83,15.83,0,0,1,3.45-1.94L118.56,84c1-.39,2.74-.93,3.8-1.21l8.23-2.14c1.06-.28,2.82-.67,3.9-.86l10.25-1.84c1.08-.2,2.86-.42,4-.5l13.24-1c1.1-.08,2.9-.11,4-.07l9.83.37c1.1,0,2.89.2,4,.35l12.5,1.75c1.09.15,2.86.49,3.92.75L212,83.5a19.52,19.52,0,0,1,3.71,1.4l2.69,1.41a23.94,23.94,0,0,1,3.32,2.21l.35.29a12.62,12.62,0,0,1,2.53,3Z"
        transform="translate(-95.9 -75.81)" />
    <path class="cls-4"
        d="M161.62,76.41c-1.1,0-2.77.1-3.71.17l-3.71.31-6.34.63c-1.1.11-2.88.36-4,.55l-9.41,1.71c-1.08.19-2.83.59-3.9.87l-10.47,2.8A2.48,2.48,0,0,0,118.37,86l1,11.45c.1,1.09.22,2.89.28,4L120.92,126c0,1.1.2,2.89.32,4l.22,1.89c.12,1.09.42,2.86.67,3.93l.54,2.37c.24,1.07.65,2.82.92,3.89l.32,1.32a35.66,35.66,0,0,0,1.2,3.8l1,2.57c.41,1,1.14,2.66,1.64,3.64l.26.5c.49,1,1.33,2.57,1.87,3.53l1.49,2.72a21.72,21.72,0,0,0,2.29,3.26l1.27,1.44c.73.82,1.93,2.17,2.67,3l.89,1a27.64,27.64,0,0,0,2.93,2.69l2,1.54c.87.67,2.35,1.69,3.29,2.26l2,1.24c.94.57,2.52,1.42,3.52,1.88l.05,0a22.59,22.59,0,0,0,3.77,1.27l1.81.42a37.53,37.53,0,0,0,3.94.62l.85.08c1.09.1,2.34.19,2.76.19h1.41c.34,0,1.52-.09,2.61-.19l.85-.08a37.94,37.94,0,0,0,3.94-.62l1.81-.42a22.9,22.9,0,0,0,3.77-1.27l0,0c1-.46,2.59-1.31,3.53-1.88l2-1.24c.93-.57,2.42-1.59,3.29-2.26l2-1.54a27.64,27.64,0,0,0,2.93-2.69l.89-1c.74-.81,1.94-2.16,2.67-3l1.27-1.44a22.4,22.4,0,0,0,2.28-3.26l1.5-2.72c.53-1,1.38-2.55,1.87-3.53l.26-.5c.49-1,1.23-2.62,1.63-3.64l1-2.57a33.56,33.56,0,0,0,1.21-3.8l.32-1.32c.26-1.07.68-2.82.92-3.89l.54-2.37c.25-1.07.55-2.84.67-3.93l.22-1.89c.12-1.1.27-2.89.32-4l1.23-24.61c.06-1.09.18-2.89.28-4l1-11.45A2.48,2.48,0,0,0,212,83.45l-10.47-2.8c-1.07-.28-2.82-.68-3.9-.87l-9.41-1.71c-1.08-.19-2.87-.44-4-.55l-6.34-.63-3.71-.31c-.94-.07-2.62-.15-3.72-.18l-1.44-.05c-1.1,0-2.9,0-4,0Z"
        transform="translate(-95.9 -75.81)" />
    <rect class="cls-5" x="18.05" y="132.56" width="22.29" height="11.07" rx="0.79" />
    <rect class="cls-6" x="18.05" y="132.56" width="22.29" height="11.07" rx="0.79" />
    <path class="cls-7" d="M102.07,113.05" transform="translate(-95.9 -75.81)" />
    <rect class="cls-5" x="99.48" y="132.56" width="22.29" height="11.07" rx="0.79" />
    <rect class="cls-6" x="99.48" y="132.56" width="22.29" height="11.07" rx="0.79" />
    <path class="cls-8"
        d="M166,158.33h28.23a4.15,4.15,0,0,0,2.95-1.23,7,7,0,0,0,1.12-3.22L201.88,111a1.8,1.8,0,0,0-1.83-2H132a1.81,1.81,0,0,0-1.83,2l3.54,42.87a7,7,0,0,0,1.12,3.22,4.15,4.15,0,0,0,2.95,1.23H166Z"
        transform="translate(-95.9 -75.81)" />
    <path class="cls-2"
        d="M166,158.33h28.23a4.15,4.15,0,0,0,2.95-1.23,7,7,0,0,0,1.12-3.22L201.88,111a1.8,1.8,0,0,0-1.83-2H132a1.81,1.81,0,0,0-1.83,2l3.54,42.87a7,7,0,0,0,1.12,3.22,4.15,4.15,0,0,0,2.95,1.23H166Z"
        transform="translate(-95.9 -75.81)" />
    <path class="cls-9"
        d="M167.82,163c1,0,2.68,0,3.78-.07l6.89-.22c1.1,0,2.89-.18,4-.31l7.05-.9c1.09-.14,2.87-.41,3.95-.61l3.15-.58a5.53,5.53,0,0,0,2.77-1.33,6.36,6.36,0,0,0,1-3l.19-2.17c.09-1.1.24-2.89.33-4L204,111a7.65,7.65,0,0,0-.6-3.48,6.92,6.92,0,0,0-1.74-2.15,6.39,6.39,0,0,0-3-.67H133.19a6.44,6.44,0,0,0-3,.67,7.05,7.05,0,0,0-1.73,2.15,7.65,7.65,0,0,0-.6,3.48L131,149.88c.09,1.1.24,2.89.34,4l.19,2.17a6.48,6.48,0,0,0,1,3,5.61,5.61,0,0,0,2.78,1.33l3.15.58c1.08.2,2.86.47,4,.61l7,.9c1.1.13,2.89.28,4,.31l6.89.22c1.1,0,2.84.07,3.86.07Z"
        transform="translate(-95.9 -75.81)" />
    <path class="cls-5"
        d="M168,89.56l3.82,0,4.12,0c1.1,0,2.9.06,4,.1l10.82.43c1.09,0,2.89.13,4,.2l3.42.21a2.7,2.7,0,0,1,2.37,2.08l.67,3.5A4.65,4.65,0,0,1,201,99a3.71,3.71,0,0,1-1.46,1.22,11.16,11.16,0,0,1-2.84.31H135.33a11.22,11.22,0,0,1-2.84-.31A3.71,3.71,0,0,1,131,99a4.72,4.72,0,0,1-.25-2.89l.67-3.5a2.7,2.7,0,0,1,2.37-2.08l3.42-.21c1.1-.07,2.9-.16,4-.2l10.81-.43c1.1,0,2.9-.09,4-.1l4.12,0,4,0H168Z"
        transform="translate(-95.9 -75.81)" />
    <path class="cls-10"
        d="M168,89.56l3.82,0,4.12,0c1.1,0,2.9.06,4,.1l10.82.43c1.09,0,2.89.13,4,.2l3.42.21a2.7,2.7,0,0,1,2.37,2.08l.67,3.5A4.65,4.65,0,0,1,201,99a3.71,3.71,0,0,1-1.46,1.22,11.16,11.16,0,0,1-2.84.31H135.33a11.22,11.22,0,0,1-2.84-.31A3.71,3.71,0,0,1,131,99a4.72,4.72,0,0,1-.25-2.89l.67-3.5a2.7,2.7,0,0,1,2.37-2.08l3.42-.21c1.1-.07,2.9-.16,4-.2l10.81-.43c1.1,0,2.9-.09,4-.1l4.12,0,4,0H168Z"
        transform="translate(-95.9 -75.81)" />
    <path class="cls-9"
        d="M176.07,101.74h21.64a11.15,11.15,0,0,0,3.11-.41,9.23,9.23,0,0,0,1.78-.87,3.31,3.31,0,0,0,.53-2.45v-.18c-.08-1.1-.27-2.89-.41-4l-.4-3a8.68,8.68,0,0,0-.95-3,4.36,4.36,0,0,0-1.89-1.46,13.37,13.37,0,0,0-3.21-.48l-5.07-.15-4-.12-12.58-.42-4-.1-2.57,0c-1.1,0-2.9,0-4,0l-2.48,0-4,.1L145,85.65l-4,.12-5.07.15a13.46,13.46,0,0,0-3.22.48,4.42,4.42,0,0,0-1.89,1.46,8.69,8.69,0,0,0-.94,3l-.4,3c-.15,1.09-.33,2.88-.41,4l0,.18a3.36,3.36,0,0,0,.53,2.45,9.65,9.65,0,0,0,1.79.87,11.15,11.15,0,0,0,3.11.41h41.59Z"
        transform="translate(-95.9 -75.81)" />
    <rect class="cls-11" x="53.3" y="16.12" width="32.94" height="6.26" />
    <path class="cls-4"
        d="M121.87,164.84s0,0,0,0l2,.25,5.35.68a12.68,12.68,0,0,1,2.9.68,6.06,6.06,0,0,1,1.88,2c.53.85,1.44,2.32,2,3.25l6.21,9.91,1.21,1.94c.09.13.08.23,0,.22l-2.14-.33-9.84-1.49a15.11,15.11,0,0,1-2.82-.68,9,9,0,0,1-1.53-.92,8.52,8.52,0,0,1-1.21-1.19,9.67,9.67,0,0,1-1-2.59l-2.56-9.73Z"
        transform="translate(-95.9 -75.81)" />
    <circle class="cls-12" cx="36.23" cy="101.62" r="3.88" />
    <path class="cls-13"
        d="M120.23,165.5a1.53,1.53,0,0,1,1.77-2.07l7,.84a16.49,16.49,0,0,1,3.59.8,7.5,7.5,0,0,1,2.37,2.36c.67,1,1.83,2.77,2.58,3.89l7.8,11.71,1.55,2.33c.11.16.1.28,0,.26l-2.63-.37-12.56-1.8a18.72,18.72,0,0,1-3.49-.8,11.72,11.72,0,0,1-1.94-1.09,10.24,10.24,0,0,1-1.52-1.41,11.63,11.63,0,0,1-1.3-3.13Z"
        transform="translate(-95.9 -75.81)" />
    <circle class="cls-14" cx="25.37" cy="88.53" r="0.3" />
    <circle class="cls-14" cx="31.82" cy="89.13" r="0.3" />
    <circle class="cls-14" cx="36.87" cy="90.17" r="0.3" />
    <circle class="cls-14" cx="48.95" cy="108.35" r="0.3" />
    <circle class="cls-14" cx="40.81" cy="95.56" r="0.3" />
    <circle class="cls-14" cx="44.35" cy="101.12" r="0.3" />
    <circle class="cls-14" cx="42.1" cy="107.83" r="0.3" />
    <circle class="cls-14" cx="35.31" cy="106.8" r="0.3" />
    <circle class="cls-14" cx="28.43" cy="101.17" r="0.3" />
    <circle class="cls-14" cx="26.76" cy="94.96" r="0.3" />
    <circle class="cls-12" cx="26.86" cy="89.72" r="0.53" />
    <circle class="cls-12" cx="28.34" cy="89.92" r="0.53" />
    <circle class="cls-12" cx="29.83" cy="90.12" r="0.53" />
    <circle class="cls-12" cx="31.31" cy="90.32" r="0.53" />
    <circle class="cls-12" cx="32.8" cy="90.52" r="0.53" />
    <circle class="cls-12" cx="34.29" cy="90.72" r="0.53" />
    <circle class="cls-12" cx="27.17" cy="90.93" r="0.53" />
    <circle class="cls-12" cx="28.65" cy="91.13" r="0.53" />
    <circle class="cls-12" cx="30.13" cy="91.32" r="0.53" />
    <circle class="cls-12" cx="31.62" cy="91.53" r="0.53" />
    <circle class="cls-12" cx="33.11" cy="91.73" r="0.53" />
    <circle class="cls-12" cx="34.59" cy="91.93" r="0.53" />
    <circle class="cls-12" cx="28.21" cy="94.43" r="0.53" />
    <circle class="cls-12" cx="29.69" cy="94.63" r="0.53" />
    <circle class="cls-12" cx="31.17" cy="94.83" r="0.53" />
    <circle class="cls-12" cx="32.66" cy="95.02" r="0.53" />
    <circle class="cls-12" cx="34.15" cy="95.23" r="0.53" />
    <circle class="cls-12" cx="35.63" cy="95.42" r="0.53" />
    <circle class="cls-12" cx="28.51" cy="95.64" r="0.53" />
    <circle class="cls-12" cx="30" cy="95.83" r="0.53" />
    <circle class="cls-12" cx="31.48" cy="96.03" r="0.53" />
    <circle class="cls-12" cx="32.97" cy="96.24" r="0.53" />
    <circle class="cls-12" cx="34.46" cy="96.43" r="0.53" />
    <circle class="cls-12" cx="35.94" cy="96.63" r="0.53" />
    <circle class="cls-12" cx="37.16" cy="95.63" r="0.53" />
    <circle class="cls-12" cx="37.47" cy="96.84" r="0.53" />
    <circle class="cls-15" cx="46.52" cy="107.12" r="0.53" />
    <circle class="cls-15" cx="45.82" cy="106.02" r="0.53" />
    <circle class="cls-15" cx="45.12" cy="104.91" r="0.53" />
    <circle class="cls-15" cx="44.42" cy="103.8" r="0.53" />
    <circle class="cls-15" cx="43.72" cy="102.7" r="0.53" />
    <circle class="cls-15" cx="43.02" cy="101.59" r="0.53" />
    <circle class="cls-15" cx="42.32" cy="100.48" r="0.53" />
    <circle class="cls-15" cx="41.63" cy="99.37" r="0.53" />
    <circle class="cls-15" cx="40.93" cy="98.27" r="0.53" />
    <circle class="cls-15" cx="40.23" cy="97.16" r="0.53" />
    <circle class="cls-15" cx="39.53" cy="96.05" r="0.53" />
    <circle class="cls-15" cx="38.83" cy="94.95" r="0.53" />
    <path class="cls-4"
        d="M209.88,164.84s0,0,0,0l-2,.25-5.34.68a12.65,12.65,0,0,0-2.91.68,6.06,6.06,0,0,0-1.88,2l-2,3.25-6.21,9.91-1.22,1.94c-.08.13-.08.23,0,.22l2.14-.33,9.84-1.49a14.71,14.71,0,0,0,2.82-.68,8.71,8.71,0,0,0,1.54-.92,8,8,0,0,0,1.2-1.19,9.67,9.67,0,0,0,1-2.59l2.56-9.73Z"
        transform="translate(-95.9 -75.81)" />
    <circle class="cls-12" cx="103.72" cy="101.62" r="3.88" />
    <path class="cls-13"
        d="M211.51,165.5a1.52,1.52,0,0,0-1.77-2.07l-7,.84a16.38,16.38,0,0,0-3.58.8,7.41,7.41,0,0,0-2.38,2.36l-2.57,3.89L186.39,183l-1.55,2.33c-.11.16-.1.28,0,.26l2.63-.37,12.55-1.8a18.33,18.33,0,0,0,3.49-.8,11.72,11.72,0,0,0,1.94-1.09,10.24,10.24,0,0,0,1.52-1.41,11.63,11.63,0,0,0,1.3-3.13Z"
        transform="translate(-95.9 -75.81)" />
    <circle class="cls-14" cx="114.58" cy="88.53" r="0.3" />
    <circle class="cls-14" cx="108.13" cy="89.13" r="0.3" />
    <circle class="cls-14" cx="103.08" cy="90.17" r="0.3" />
    <circle class="cls-14" cx="91" cy="108.35" r="0.3" />
    <circle class="cls-14" cx="99.14" cy="95.56" r="0.3" />
    <circle class="cls-14" cx="95.6" cy="101.12" r="0.3" />
    <circle class="cls-14" cx="97.85" cy="107.83" r="0.3" />
    <circle class="cls-14" cx="104.64" cy="106.8" r="0.3" />
    <circle class="cls-14" cx="111.53" cy="101.17" r="0.3" />
    <circle class="cls-14" cx="113.19" cy="94.96" r="0.3" />
    <circle class="cls-12" cx="113.09" cy="89.72" r="0.53" />
    <circle class="cls-12" cx="111.61" cy="89.92" r="0.53" />
    <circle class="cls-12" cx="110.13" cy="90.12" r="0.53" />
    <circle class="cls-12" cx="108.64" cy="90.32" r="0.53" />
    <circle class="cls-12" cx="107.15" cy="90.52" r="0.53" />
    <circle class="cls-12" cx="105.66" cy="90.72" r="0.53" />
    <circle class="cls-12" cx="112.78" cy="90.93" r="0.53" />
    <circle class="cls-12" cx="111.3" cy="91.13" r="0.53" />
    <circle class="cls-12" cx="109.82" cy="91.32" r="0.53" />
    <circle class="cls-12" cx="108.33" cy="91.53" r="0.53" />
    <circle class="cls-12" cx="106.84" cy="91.73" r="0.53" />
    <circle class="cls-12" cx="105.36" cy="91.93" r="0.53" />
    <circle class="cls-12" cx="111.74" cy="94.43" r="0.53" />
    <circle class="cls-12" cx="110.26" cy="94.63" r="0.53" />
    <circle class="cls-12" cx="108.78" cy="94.83" r="0.53" />
    <circle class="cls-12" cx="107.29" cy="95.02" r="0.53" />
    <circle class="cls-12" cx="105.8" cy="95.23" r="0.53" />
    <circle class="cls-12" cx="104.32" cy="95.42" r="0.53" />
    <circle class="cls-12" cx="111.44" cy="95.64" r="0.53" />
    <circle class="cls-12" cx="109.95" cy="95.83" r="0.53" />
    <circle class="cls-12" cx="108.47" cy="96.03" r="0.53" />
    <circle class="cls-12" cx="106.98" cy="96.24" r="0.53" />
    <circle class="cls-12" cx="105.49" cy="96.43" r="0.53" />
    <circle class="cls-12" cx="104.01" cy="96.63" r="0.53" />
    <circle class="cls-12" cx="102.79" cy="95.63" r="0.53" />
    <circle class="cls-12" cx="102.48" cy="96.84" r="0.53" />
    <circle class="cls-15" cx="93.43" cy="107.12" r="0.53" />
    <circle class="cls-15" cx="94.13" cy="106.02" r="0.53" />
    <circle class="cls-15" cx="94.83" cy="104.91" r="0.53" />
    <circle class="cls-15" cx="95.53" cy="103.8" r="0.53" />
    <circle class="cls-15" cx="96.23" cy="102.7" r="0.53" />
    <circle class="cls-15" cx="96.93" cy="101.59" r="0.53" />
    <circle class="cls-15" cx="97.63" cy="100.48" r="0.53" />
    <circle class="cls-15" cx="98.33" cy="99.37" r="0.53" />
    <circle class="cls-15" cx="99.02" cy="98.27" r="0.53" />
    <circle class="cls-15" cx="99.72" cy="97.16" r="0.53" />
    <circle class="cls-15" cx="100.42" cy="96.05" r="0.53" />
    <circle class="cls-15" cx="101.12" cy="94.95" r="0.53" />
    <path class="cls-3"
        d="M234.85,171.86c.12,1.09-.21,1.2-.74.23l-1.43-2.6a24.49,24.49,0,0,0-2.26-3.28l-1.65-2c-.71-.84-1.92-2.13-2.67-2.86s-2.06-1.93-2.89-2.66l-1.42-1.25a30.92,30.92,0,0,0-3.19-2.4l-.48-.3-1.71-1.09s0,0,0,0l.45-2,3.43-15c.24-1.07.65-2.82.9-3.89L223.73,122a36.57,36.57,0,0,1,1.17-3.82l.58-1.55a13.51,13.51,0,0,1,1.8-3.18l1.11-1.35s.13.86.24,2Z"
        transform="translate(-95.9 -75.81)" />
    <path class="cls-3"
        d="M212.13,170.74a.06.06,0,0,0-.08,0l-.53,2-1.77,6.54-.53,2s0,0,0,0l1.85-.2c1-.11,2.7-.36,3.78-.55l2.11-.38c1.09-.2,2.85-.55,3.93-.77l1.5-.32,2-.41h0l-.82-.7c-.45-.37-1.45-1.2-2.24-1.83s-2.19-1.63-3.12-2.22l-.12-.07c-.93-.58-2.5-1.45-3.49-1.93l-.58-.28Z"
        transform="translate(-95.9 -75.81)" />
    <path class="cls-3"
        d="M233.54,175.46v0l-.4-.63c-.22-.34-.86-1.39-1.42-2.34l-.39-.64c-.56-1-1.54-2.46-2.17-3.36l-.44-.62a21.91,21.91,0,0,0-2.63-3l-1.06-1c-.82-.73-2.14-2-2.94-2.71l-.7-.66a29.6,29.6,0,0,0-3.12-2.49l-.45-.3-1.67-1.12h0l-.6,1.91-1,3.22c-.33,1.05-.8,2.78-1,3.86l-.16.68-.44,2a0,0,0,0,0,0,0l1.89.68.78.28a20,20,0,0,1,3.55,1.79h0a31.23,31.23,0,0,1,3.15,2.45l1.42,1.28a17.34,17.34,0,0,1,2.1,2.25l.63.92s0,0,0,0l1.79-.54c1-.3,2.55-.86,3.52-1.23Z"
        transform="translate(-95.9 -75.81)" />
    <path class="cls-3"
        d="M96.59,171.86c-.11,1.09.22,1.2.75.23l1.43-2.6a24.42,24.42,0,0,1,2.25-3.28l1.66-2c.71-.84,1.91-2.13,2.67-2.86s2.06-1.93,2.88-2.66l1.43-1.25a30.92,30.92,0,0,1,3.19-2.4l.47-.3,1.72-1.09,0,0-.45-2-3.43-15c-.25-1.07-.65-2.82-.91-3.89L107.72,122a39.14,39.14,0,0,0-1.17-3.82l-.59-1.55a13.15,13.15,0,0,0-1.79-3.18l-1.11-1.35s-.13.86-.25,2Z"
        transform="translate(-95.9 -75.81)" />
    <path class="cls-3"
        d="M119.31,170.74a.05.05,0,0,1,.08,0l.54,2,1.77,6.54.53,2s0,0,0,0l-1.85-.2c-1-.11-2.7-.36-3.79-.55l-2.11-.38c-1.08-.2-2.85-.55-3.92-.77l-1.51-.32-2-.41h0l.82-.7c.44-.37,1.45-1.2,2.24-1.83a38.28,38.28,0,0,1,3.12-2.22l.11-.07c.93-.58,2.51-1.45,3.5-1.93l.58-.28Z"
        transform="translate(-95.9 -75.81)" />
    <path class="cls-3"
        d="M97.91,175.46s0,0,0,0l.4-.63c.22-.34.86-1.39,1.42-2.34l.39-.64c.56-1,1.54-2.46,2.17-3.36l.44-.62a21.25,21.25,0,0,1,2.63-3l1.06-1c.81-.73,2.14-2,2.94-2.71l.7-.66a28.61,28.61,0,0,1,3.12-2.49l.44-.3,1.67-1.12h0l.59,1.91,1,3.22c.33,1.05.8,2.78,1,3.86l.16.68.44,2a0,0,0,0,1,0,0l-1.9.68-.78.28a20.27,20.27,0,0,0-3.54,1.79h0a32.27,32.27,0,0,0-3.14,2.45l-1.42,1.28a17.53,17.53,0,0,0-2.11,2.25l-.63.92a0,0,0,0,1,0,0l-1.79-.54c-1-.3-2.55-.86-3.52-1.23Z"
        transform="translate(-95.9 -75.81)" />
    <line class="cls-2" x1="2.33" y1="129.65" x2="137.46" y2="129.65" />
    <path class="cls-4"
        d="M103,112.69s-.12.87-.24,2l-5,46.38c-.12,1.09-.2,2-.19,2l1.18-1.65,1.71-2.38a39.62,39.62,0,0,1,2.52-3.1l1.77-1.91c.75-.81,2-2.11,2.77-2.89l.41-.41,1.44-1.44s-.06-.92-.15-2l-.82-9.35c-.09-1.1-.26-2.89-.37-4l-.75-7.59c-.11-1.1-.34-2.88-.51-4l-.24-1.62a27,27,0,0,0-1-3.87l0-.16a9.61,9.61,0,0,0-1.58-2.92Z"
        transform="translate(-95.9 -75.81)" />
    <path class="cls-16"
        d="M103,112.69s-.12.87-.24,2l-5,46.38c-.12,1.09-.2,2-.19,2l1.18-1.65,1.71-2.38a39.62,39.62,0,0,1,2.52-3.1l1.77-1.91c.75-.81,2-2.11,2.77-2.89l.41-.41,1.44-1.44s-.06-.92-.15-2l-.82-9.35c-.09-1.1-.26-2.89-.37-4l-.75-7.59c-.11-1.1-.34-2.88-.51-4l-.24-1.62a27,27,0,0,0-1-3.87l0-.16a9.61,9.61,0,0,0-1.58-2.92Z"
        transform="translate(-95.9 -75.81)" />
    <path class="cls-4"
        d="M227.94,112.69s.12.87.23,2l5,46.38c.11,1.09.2,2,.19,2l-1.18-1.65L230.47,159a39.74,39.74,0,0,0-2.53-3.1L226.18,154c-.75-.81-2-2.11-2.77-2.89l-.41-.41-1.44-1.44s.05-.92.15-2l.81-9.35c.1-1.1.27-2.89.37-4l.76-7.59c.11-1.1.34-2.88.5-4l.25-1.62a28.35,28.35,0,0,1,.94-3.87l.06-.16a9.61,9.61,0,0,1,1.58-2.92Z"
        transform="translate(-95.9 -75.81)" />
    <path class="cls-16"
        d="M227.94,112.69s.12.87.23,2l5,46.38c.11,1.09.2,2,.19,2l-1.18-1.65L230.47,159a39.74,39.74,0,0,0-2.53-3.1L226.18,154c-.75-.81-2-2.11-2.77-2.89l-.41-.41-1.44-1.44s.05-.92.15-2l.81-9.35c.1-1.1.27-2.89.37-4l.76-7.59c.11-1.1.34-2.88.5-4l.25-1.62a28.35,28.35,0,0,1,.94-3.87l.06-.16a9.61,9.61,0,0,1,1.58-2.92Z"
        transform="translate(-95.9 -75.81)" />
    <path class="cls-2"
        d="M232.84,212.58c.1-1.09.25-2.89.33-4l1.92-27.29c.08-1.1.13-2.82.12-3.82s-.08-2.73-.15-3.83l-.2-2.77c-.07-1.1-.23-2.89-.36-4L228.76,115c-.12-1.09-.32-2.88-.45-4l-1.54-13.18a14.27,14.27,0,0,0-.66-3c-.24-.56-.86-1.81-1.39-2.78l-.13-.25a12.36,12.36,0,0,0-2.51-3l-1.62-1.34a16.87,16.87,0,0,0-3.39-2l-2.31-1A35.74,35.74,0,0,0,211,83.19l-3.58-.94-3.87-1L198,79.82c-1.07-.28-2.83-.64-3.91-.81l-9.67-1.52c-1.09-.17-2.87-.38-4-.45l-6.71-.47c-1.09-.07-2.89-.16-4-.19l-1.77,0c-1.1,0-2.9,0-4,0l-2,0c-1.09,0-2.89.12-4,.19l-6.7.47c-1.1.07-2.89.28-4,.45L137.66,79c-1.09.17-2.85.53-3.91.81l-5.53,1.42-3.87,1-3.59.94A36.53,36.53,0,0,0,117,84.47l-2.31,1a16.68,16.68,0,0,0-3.39,2l-1.62,1.34a12.1,12.1,0,0,0-2.5,3l-.14.25c-.52,1-1.15,2.22-1.39,2.78a14.88,14.88,0,0,0-.67,3l-1.64,13.19c-.14,1.09-.35,2.88-.47,4l-5.74,51.88c-.13,1.09-.29,2.88-.36,4l-.2,2.77c-.07,1.1-.14,2.82-.15,3.83s0,2.72.12,3.82l1.92,27.29c.08,1.09.21,2.89.29,4l.32,4.36c.08,1.1.23,2.89.32,4l1,12.56a2,2,0,0,0,2.15,1.81l34.9-3.19a7.84,7.84,0,0,0,3.39-1.23,5.74,5.74,0,0,0,1.79-3l4-20.28.41-2c0-.05,0-.09.06-.09h37.48a.17.17,0,0,1,0,.1l.38,2.07L189,228.57a4.9,4.9,0,0,0,1.6,2.8,8.36,8.36,0,0,0,3.23,1l34.88,2.88a2,2,0,0,0,2.19-1.82Z"
        transform="translate(-95.9 -75.81)" />
    <circle class="cls-15" cx="45.33" cy="17.42" r="1.2" />
    <circle class="cls-12" cx="41.61" cy="17.25" r="1.04" />
    <circle class="cls-15" cx="95.78" cy="17.42" r="1.2" />
    <circle class="cls-12" cx="99.49" cy="17.25" r="1.04" />
    <circle class="cls-17" cx="50.33" cy="18.62" r="2.44" />
    <circle class="cls-4" cx="49.33" cy="18.86" r="0.74" />
    <circle class="cls-4" cx="51.33" cy="18.86" r="0.74" />
</svg>