<svg id="图层_3" data-name="图层 3" xmlns="http://www.w3.org/2000/svg" viewBox="0 0 152.2 169.27"><defs><style>.cls-1,.cls-11,.cls-12,.cls-16,.cls-17,.cls-18,.cls-26,.cls-6,.cls-7,.cls-9{fill:none;}.cls-1,.cls-12,.cls-16,.cls-17,.cls-23,.cls-24,.cls-25,.cls-26{stroke:#221714;}.cls-1,.cls-11,.cls-12,.cls-14,.cls-15,.cls-16,.cls-17,.cls-18,.cls-23,.cls-24,.cls-25,.cls-26,.cls-4,.cls-6,.cls-7,.cls-9{stroke-miterlimit:10;}.cls-2{fill:#c8c9c9;}.cls-25,.cls-3{fill:#9e9f9f;}.cls-4,.cls-8{fill:#3d3a39;}.cls-4,.cls-9{stroke:#3d3a39;}.cls-5{fill:#c4b493;}.cls-14,.cls-15,.cls-6,.cls-7{stroke:#c8c9c9;}.cls-6{stroke-width:0.99px;}.cls-7{stroke-width:0.99px;}.cls-10{fill:#727171;}.cls-11,.cls-18{stroke:#727171;}.cls-12,.cls-24{stroke-width:0.1px;}.cls-13{fill:#888;}.cls-14{fill:#bf1626;}.cls-14,.cls-25{stroke-width:0.25px;}.cls-15{fill:#dbdcdc;stroke-width:1.25px;}.cls-16,.cls-23{stroke-width:0.5px;}.cls-17{stroke-width:0.75px;}.cls-18{stroke-width:0.91px;}.cls-19{fill:#ededed;}.cls-20{fill:#3c3a39;}.cls-21{fill:#595757;}.cls-22,.cls-23,.cls-24{fill:#221714;}.cls-26{stroke-width:0.15px;}</style></defs><title>萝10车头</title><path class="cls-1" d="M123.88,198.44v12.32c0,1.1,0,2.9.07,4l0,1.12c0,1.09.12,2.89.2,4l.09,1.29c.07,1.1.25,2.89.38,4l.07.53a31.06,31.06,0,0,0,.73,3.77,22,22,0,0,0,.65,2.1l.17.32" transform="translate(-78.91 -63.43)"/><polyline class="cls-2" points="1.5 113.95 0.82 136.27 0.5 141.25 0.86 150.65 2.8 157.75 6.08 162.71 10.92 167.18 14.33 168.77 46.35 168.77 47.22 167.92 46.16 164.04 45.13 154.45 44.67 134.86 107.38 134.86 106.97 155.5 106.27 163.08 105.09 167.47 105.28 168.77 136.84 168.77 139.75 168.03 143.3 165.28 148.55 159.79 151 152.75 151.75 143.63 150.91 113.25"/><polygon class="cls-3" points="44.97 135.7 45.11 153.84 45.91 163.08 47.36 167.75 48.12 167.18 48.12 139.8 47.29 138.07 46.42 137.8 46.33 135.24 44.97 135.24 44.97 135.7"/><polygon class="cls-3" points="107.2 135.7 107.06 153.84 106.27 163.08 104.82 167.75 104.06 167.18 104.06 139.8 104.89 138.07 105.76 137.8 105.84 135.24 107.2 135.24 107.2 135.7"/><polyline class="cls-4" points="4.34 30.6 8.84 30.6 10.92 90.4 7.12 99.96 1.93 101.53"/><polyline class="cls-4" points="148.23 30.6 143.73 30.6 141.66 90.4 145.45 99.96 150.65 101.53"/><path class="cls-5" d="M108.13,70.82l-7.53,2.71a19.86,19.86,0,0,0-1.83.8l-.28.15a19.83,19.83,0,0,0-1.72,1l0,0c-.46.3-1.2.81-1.64,1.14l-3.9,2.88c-.45.33-1.14.9-1.55,1.27l-1.16,1c-.4.37-1,1-1.44,1.39l-.43.44a11.49,11.49,0,0,0-1.22,1.56l0,0c-.28.47-.66,1.17-.84,1.55A12.17,12.17,0,0,0,84,88.47l-.1.44c-.13.53-.29,1.39-.36,1.91a17.9,17.9,0,0,0-.13,2v.86a1,1,0,0,0,1,1h.71a1.06,1.06,0,0,1,1.06,1c0,.53.08,1.41.11,2L88.77,152a4.81,4.81,0,0,1-.36,1.91l-2.13,4.74a11,11,0,0,1-1,1.68c-.31.42-.76,1-1,1.32a5.89,5.89,0,0,1-1.18,1,10.52,10.52,0,0,1-1.48.71,1.44,1.44,0,0,0-.79,1.26l-.49,14.73a1,1,0,0,0,1,1H228.94a1,1,0,0,0,1-1l-.48-14.73a1.44,1.44,0,0,0-.79-1.26,9.26,9.26,0,0,1-1.49-.72,5.24,5.24,0,0,1-1.17-1c-.25-.3-.7-.9-1-1.32a10.66,10.66,0,0,1-1-1.68l-2.14-4.74a5,5,0,0,1-.36-1.91L224,97.54c0-.55.07-1.43.1-2a1.06,1.06,0,0,1,1.06-1h.71a1,1,0,0,0,1-1v-.86c0-.55-.06-1.43-.12-2s-.23-1.38-.36-1.92l-.11-.43a10.59,10.59,0,0,0-.54-1.67,16.5,16.5,0,0,0-.84-1.55v0a10.3,10.3,0,0,0-1.23-1.56l-.43-.44c-.38-.39-1-1-1.44-1.39l-1.16-1c-.41-.37-1.1-.94-1.54-1.27l-3.9-2.88c-.44-.33-1.18-.84-1.64-1.14l0,0a20,20,0,0,0-1.73-1l-.27-.15a19.86,19.86,0,0,0-1.83-.8l-7.53-2.71" transform="translate(-78.91 -63.43)"/><path class="cls-2" d="M129.63,178.76a4.53,4.53,0,0,1,.06,1.12H104.17a14.07,14.07,0,0,1-.07-2V144.47a5,5,0,0,1,1.56.24c.85.21,2.43.49,3.51.64l11.45,1.59,2,.28a2.72,2.72,0,0,1,.29.73c.12.4.39,1.31.59,2s.63,2.16.93,3.21l.1.34c.3,1.05.72,2.57.92,3.37s.56,2.2.79,3.11.56,2.31.75,3.12.51,2.32.7,3.34.48,2.76.65,3.84l.08.48c.17,1.08.44,2.84.61,3.92l.15,1C129.37,176.77,129.57,178.15,129.63,178.76Z" transform="translate(-78.91 -63.43)"/><path class="cls-6" d="M129.63,178.76a4.53,4.53,0,0,1,.06,1.12H104.17a14.07,14.07,0,0,1-.07-2V144.47a5,5,0,0,1,1.56.24c.85.21,2.43.49,3.51.64l11.45,1.59,2,.28a2.72,2.72,0,0,1,.29.73c.12.4.39,1.31.59,2s.63,2.16.93,3.21l.1.34c.3,1.05.72,2.57.92,3.37s.56,2.2.79,3.11.56,2.31.75,3.12.51,2.32.7,3.34.48,2.76.65,3.84l.08.48c.17,1.08.44,2.84.61,3.92l.15,1C129.37,176.77,129.57,178.15,129.63,178.76Z" transform="translate(-78.91 -63.43)"/><path class="cls-2" d="M181.09,178.76a4.81,4.81,0,0,0-.05,1.12h25.52a14.07,14.07,0,0,0,.07-2V144.47a5,5,0,0,0-1.56.24c-.85.21-2.43.5-3.52.64l-11.45,1.59-2,.28a3.39,3.39,0,0,0-.28.73l-.6,2c-.2.72-.62,2.16-.92,3.21l-.1.34c-.3,1.05-.72,2.57-.93,3.37s-.56,2.2-.78,3.11-.56,2.31-.75,3.12-.51,2.32-.7,3.34-.48,2.76-.65,3.84l-.08.48c-.17,1.08-.44,2.84-.61,3.92l-.15,1C181.36,176.77,181.16,178.15,181.09,178.76Z" transform="translate(-78.91 -63.43)"/><path class="cls-7" d="M181.09,178.76a4.81,4.81,0,0,0-.05,1.12h25.52a14.07,14.07,0,0,0,.07-2V144.47a5,5,0,0,0-1.56.24c-.85.21-2.43.5-3.52.64l-11.45,1.59-2,.28a3.39,3.39,0,0,0-.28.73l-.6,2c-.2.72-.62,2.16-.92,3.21l-.1.34c-.3,1.05-.72,2.57-.93,3.37s-.56,2.2-.78,3.11-.56,2.31-.75,3.12-.51,2.32-.7,3.34-.48,2.76-.65,3.84l-.08.48c-.17,1.08-.44,2.84-.61,3.92l-.15,1C181.36,176.77,181.16,178.15,181.09,178.76Z" transform="translate(-78.91 -63.43)"/><path class="cls-8" d="M160.1,64.15h2l14.22.13c.55,0,1.45,0,2,.07l4.67.3c.55,0,1.45.12,2,.19l3.43.45c.54.07,1.42.24,2,.37l2,.5c.53.14,1.4.37,1.93.53l3.5,1c.53.15,1.38.45,1.89.65l4,1.59c.51.2,1.32.58,1.81.84l7,3.8a.69.69,0,0,1,.16,1.16l-5.32,5.07a2.67,2.67,0,0,0-.72,1.69v62.82a.26.26,0,0,1-.19.26l-1.18.12-6.44.66-2,.19-8,.7-2,.15-3.41.19c-.55,0-1.45.07-2,.09l-9.89.26-2,.05-10.45.21-2,0h-1c-.55,0-1.45,0-2,0h-.43l-2,0-10.45-.22-2,0-9.89-.26-2-.09-3.41-.2c-.55,0-1.44-.09-2-.14l-8-.71-2-.19-6.38-.65-1.21-.12a.27.27,0,0,1-.22-.27V82.45a2.67,2.67,0,0,0-.72-1.69l-5.32-5.07a.69.69,0,0,1,.16-1.17l7-3.79c.49-.26,1.3-.64,1.81-.85l4-1.58c.52-.21,1.37-.5,1.89-.65l3.51-1,1.93-.52,2-.5c.53-.13,1.42-.3,2-.37l3.43-.45c.54-.07,1.44-.16,2-.2l4.67-.29c.55,0,1.44-.07,2-.07l14.23-.13h2Z" transform="translate(-78.91 -63.43)"/><path class="cls-9" d="M160.1,64.15h2l14.22.13c.55,0,1.45,0,2,.07l4.67.3c.55,0,1.45.12,2,.19l3.43.45c.54.07,1.42.24,2,.37l2,.5c.53.14,1.4.37,1.93.53l3.5,1c.53.15,1.38.45,1.89.65l4,1.59c.51.2,1.32.58,1.81.84l7,3.8a.69.69,0,0,1,.16,1.16l-5.32,5.07a2.67,2.67,0,0,0-.72,1.69v62.82a.26.26,0,0,1-.19.26l-1.18.12-6.44.66-2,.19-8,.7-2,.15-3.41.19c-.55,0-1.45.07-2,.09l-9.89.26-2,.05-10.45.21-2,0h-1c-.55,0-1.45,0-2,0h-.43l-2,0-10.45-.22-2,0-9.89-.26-2-.09-3.41-.2c-.55,0-1.44-.09-2-.14l-8-.71-2-.19-6.38-.65-1.21-.12a.27.27,0,0,1-.22-.27V82.45a2.67,2.67,0,0,0-.72-1.69l-5.32-5.07a.69.69,0,0,1,.16-1.17l7-3.79c.49-.26,1.3-.64,1.81-.85l4-1.58c.52-.21,1.37-.5,1.89-.65l3.51-1,1.93-.52,2-.5c.53-.13,1.42-.3,2-.37l3.43-.45c.54-.07,1.44-.16,2-.2l4.67-.29c.55,0,1.44-.07,2-.07l14.23-.13h2Z" transform="translate(-78.91 -63.43)"/><path class="cls-1" d="M83.31,200.49H79.78a6.61,6.61,0,0,1-.09-2l3.59-105.3a31.91,31.91,0,0,1,.3-3.38,20.23,20.23,0,0,1,.75-2.89,11,11,0,0,1,1.86-3l.48-.54a28.9,28.9,0,0,1,2.89-2.75l1.73-1.39c.85-.69,2.3-1.75,3.22-2.36l1.68-1.12c.92-.61,2.44-1.56,3.39-2.11L102.5,72a37,37,0,0,1,3.57-1.77l2.08-.86c1-.42,2.69-1.09,3.72-1.48l.18-.07a35.66,35.66,0,0,1,3.8-1.2l4-1a37.61,37.61,0,0,1,3.93-.7l4.39-.48c1.09-.13,2.88-.24,4-.25l5.69-.08,4,0,11.34-.1h4l11.31.1,4,0,5.68.08c1.1,0,2.9.12,4,.25l4.39.48a37.61,37.61,0,0,1,3.93.7l4,1a35.83,35.83,0,0,1,3.81,1.2l.18.07c1,.39,2.7,1.06,3.71,1.48l2.08.86A36.06,36.06,0,0,1,207.79,72l2.91,1.7c1,.55,2.48,1.5,3.4,2.11l1.68,1.12c.91.61,2.36,1.67,3.22,2.36l1.73,1.39a31.24,31.24,0,0,1,2.89,2.75l.48.54a11,11,0,0,1,1.85,3,21.75,21.75,0,0,1,.76,2.89c.12.76.26,2.28.3,3.38l3.58,105.3a6.82,6.82,0,0,1-.08,2h-3.82" transform="translate(-78.91 -63.43)"/><path class="cls-1" d="M125.24,198.44v2c0,.7.4,1.26.89,1.26s.9.9.9,2V230.2a2,2,0,0,1-2,2H95.56a17.53,17.53,0,0,1-2.78-.18,10.76,10.76,0,0,1-2.13-1,19.31,19.31,0,0,1-2.51-1.74c-.63-.53-1.69-1.52-2.34-2.2a23.32,23.32,0,0,1-2.29-2.89l-.18-.28a25.2,25.2,0,0,1-1.61-2.77,27.37,27.37,0,0,1-1.1-3l-.08-.26a26.23,26.23,0,0,1-.81-3.9l-.08-.68c-.13-1.09-.24-2.89-.24-4v-8.17a8.62,8.62,0,0,1,1.88-.1h1.95a5.14,5.14,0,0,0,.07-1.2v-1.31a9.28,9.28,0,0,1,2-.11H224.69a9.28,9.28,0,0,1,2,.11v1.31a5.14,5.14,0,0,0,.07,1.2h2a8.49,8.49,0,0,1,1.87.1v8.17c0,1.1-.1,2.9-.23,4l-.08.68a27.59,27.59,0,0,1-.82,3.9l-.08.26a29.85,29.85,0,0,1-1.09,3,26.94,26.94,0,0,1-1.61,2.77l-.18.28a24.29,24.29,0,0,1-2.29,2.89c-.66.68-1.71,1.67-2.34,2.2a20,20,0,0,1-2.51,1.74,11.3,11.3,0,0,1-2.13,1,17.53,17.53,0,0,1-2.78.18H185a2,2,0,0,1-2-2V203.73c0-1.1.4-2,.89-2s.9-.56.9-1.26v-2.06" transform="translate(-78.91 -63.43)"/><path class="cls-1" d="M87,198.44v10c0,1.1,0,2.66,0,3.47s.08,2.2.16,3.11a29,29,0,0,0,.59,3.52,30.57,30.57,0,0,0,1,3.27,27.42,27.42,0,0,0,1.38,2.85,23.13,23.13,0,0,0,1.67,2.53c.47.59,1.26,1.49,1.76,2a12.73,12.73,0,0,0,1.49,1.33l.6.4" transform="translate(-78.91 -63.43)"/><polyline class="cls-1" points="11.43 167.47 20.98 167.47 46.89 167.47"/><rect class="cls-10" x="16.34" y="136.39" width="21.63" height="10.57" rx="1"/><rect class="cls-11" x="16.34" y="136.39" width="21.63" height="10.57" rx="1"/><path class="cls-1" d="M79.41,209.94h1.4a1,1,0,0,1,1,1l0,1.77c0,.55.08,1.45.14,2l.23,2.13a14.46,14.46,0,0,0,.39,2l.43,1.47a16,16,0,0,0,.69,1.86l.64,1.37a16.41,16.41,0,0,0,1,1.75l.51.82,1.08,1.68.85,1.29" transform="translate(-78.91 -63.43)"/><line class="cls-1" x1="0.54" y1="148.24" x2="2.94" y2="148.24"/><path class="cls-1" d="M186.11,198.44v12.32c0,1.1,0,2.9-.06,4l0,1.12c0,1.09-.13,2.89-.2,4l-.09,1.29c-.08,1.1-.25,2.89-.38,4l-.07.53a33.11,33.11,0,0,1-.73,3.77,18.46,18.46,0,0,1-.66,2.1l-.16.32" transform="translate(-78.91 -63.43)"/><path class="cls-1" d="M223,198.44v10c0,1.1,0,2.66,0,3.47s-.09,2.2-.16,3.11a29.16,29.16,0,0,1-.6,3.52,28.44,28.44,0,0,1-1,3.27,27.29,27.29,0,0,1-1.37,2.85,21.77,21.77,0,0,1-1.68,2.53c-.47.59-1.26,1.49-1.75,2a12.69,12.69,0,0,1-1.5,1.33l-.59.4" transform="translate(-78.91 -63.43)"/><polyline class="cls-1" points="140.74 167.47 131.19 167.47 105.28 167.47"/><rect class="cls-10" x="114.2" y="136.39" width="21.63" height="10.57" rx="1"/><rect class="cls-11" x="114.2" y="136.39" width="21.63" height="10.57" rx="1"/><path class="cls-1" d="M230.58,209.94h-1.4a1,1,0,0,0-1,1l0,1.77c0,.55-.07,1.45-.13,2l-.24,2.13a14.43,14.43,0,0,1-.38,2l-.43,1.47a16.09,16.09,0,0,1-.7,1.86l-.63,1.37a18.42,18.42,0,0,1-1,1.75l-.52.82-1.08,1.68-.85,1.29" transform="translate(-78.91 -63.43)"/><line class="cls-1" x1="151.63" y1="148.24" x2="149.23" y2="148.24"/><line class="cls-1" x1="46.33" y1="136.27" x2="105.87" y2="136.27"/><path class="cls-3" d="M155.17,102.75a.5.5,0,0,1,.5.5v37.62a.5.5,0,0,1-.5.5l-9.3-.06h-1l-9.28-.28-1,0-3.37-.13-1-.06-5-.36-1-.06-6.18-.41-1-.08-8.43-.8a.56.56,0,0,1-.49-.55V103.31a.5.5,0,0,1,.5-.5Z" transform="translate(-78.91 -63.43)"/><path class="cls-1" d="M155.17,102.75a.5.5,0,0,1,.5.5v37.62a.5.5,0,0,1-.5.5l-9.3-.06h-1l-9.28-.28-1,0-3.37-.13-1-.06-5-.36-1-.06-6.18-.41-1-.08-8.43-.8a.56.56,0,0,1-.49-.55V103.31a.5.5,0,0,1,.5-.5Z" transform="translate(-78.91 -63.43)"/><path class="cls-3" d="M170.22,106.2a.5.5,0,0,1,.5-.5h23.75a.5.5,0,0,1,.5.5v36.94a.56.56,0,0,1-.5.54l-4.6.35-1,.08-8.56.62-1,.06-8.59.28a.48.48,0,0,1-.5-.49Z" transform="translate(-78.91 -63.43)"/><path class="cls-1" d="M170.22,106.2a.5.5,0,0,1,.5-.5h23.75a.5.5,0,0,1,.5.5v36.94a.56.56,0,0,1-.5.54l-4.6.35-1,.08-8.56.62-1,.06-8.59.28a.48.48,0,0,1-.5-.49Z" transform="translate(-78.91 -63.43)"/><path class="cls-3" d="M117.28,152.72a5.37,5.37,0,0,1,.84.15,5.87,5.87,0,0,1,.92.36,4.85,4.85,0,0,1,.75.53c.19.18.47.47.63.66a5.09,5.09,0,0,1,.5.77,4.82,4.82,0,0,1,.31.8,4.06,4.06,0,0,1,.1.9,7.51,7.51,0,0,1,0,.77,2.59,2.59,0,0,1-.24.64,3.25,3.25,0,0,1-.41.6,2.21,2.21,0,0,1-.51.36,4.86,4.86,0,0,1-.7.28,3.51,3.51,0,0,1-.84.14,8.1,8.1,0,0,1-1,0,4.05,4.05,0,0,1-1-.24,5.24,5.24,0,0,1-.88-.46,7.66,7.66,0,0,1-.84-.63,3.54,3.54,0,0,1-.68-.73,3.45,3.45,0,0,1-.36-.72,4.42,4.42,0,0,1-.15-.66,4.17,4.17,0,0,1,0-.81,3,3,0,0,1,.17-.78,3.4,3.4,0,0,1,.42-.66,3.9,3.9,0,0,1,.59-.57,5.31,5.31,0,0,1,.72-.38,7.11,7.11,0,0,1,.87-.25A3.68,3.68,0,0,1,117.28,152.72Z" transform="translate(-78.91 -63.43)"/><path class="cls-12" d="M117.28,152.72a5.37,5.37,0,0,1,.84.15,5.87,5.87,0,0,1,.92.36,4.85,4.85,0,0,1,.75.53c.19.18.47.47.63.66a5.09,5.09,0,0,1,.5.77,4.82,4.82,0,0,1,.31.8,4.06,4.06,0,0,1,.1.9,7.51,7.51,0,0,1,0,.77,2.59,2.59,0,0,1-.24.64,3.25,3.25,0,0,1-.41.6,2.21,2.21,0,0,1-.51.36,4.86,4.86,0,0,1-.7.28,3.51,3.51,0,0,1-.84.14,8.1,8.1,0,0,1-1,0,4.05,4.05,0,0,1-1-.24,5.24,5.24,0,0,1-.88-.46,7.66,7.66,0,0,1-.84-.63,3.54,3.54,0,0,1-.68-.73,3.45,3.45,0,0,1-.36-.72,4.42,4.42,0,0,1-.15-.66,4.17,4.17,0,0,1,0-.81,3,3,0,0,1,.17-.78,3.4,3.4,0,0,1,.42-.66,3.9,3.9,0,0,1,.59-.57,5.31,5.31,0,0,1,.72-.38,7.11,7.11,0,0,1,.87-.25A3.68,3.68,0,0,1,117.28,152.72Z" transform="translate(-78.91 -63.43)"/><path class="cls-13" d="M117.59,153.45a4.08,4.08,0,0,1,.6.18,5.55,5.55,0,0,1,.78.38c.23.14.55.37.73.51a3.94,3.94,0,0,1,.56.59,2.91,2.91,0,0,1,.35.63l.16.54a6.64,6.64,0,0,1,.09.66,4.13,4.13,0,0,1,0,.71,2.19,2.19,0,0,1-.17.53,2.92,2.92,0,0,1-.35.48,2.13,2.13,0,0,1-.44.38,2.48,2.48,0,0,1-.65.21,8.39,8.39,0,0,1-.93.09,4.24,4.24,0,0,1-.84-.06l-.72-.21a4,4,0,0,1-.75-.37,5.75,5.75,0,0,1-.63-.48,6.27,6.27,0,0,1-.53-.59,3.92,3.92,0,0,1-.44-.87,4,4,0,0,1-.17-.95,2.58,2.58,0,0,1,.14-.8,2.62,2.62,0,0,1,.34-.62,4.7,4.7,0,0,1,.44-.45,3.26,3.26,0,0,1,.47-.32,1.84,1.84,0,0,1,.48-.17,2.74,2.74,0,0,1,.51-.06h.51A3.78,3.78,0,0,1,117.59,153.45Z" transform="translate(-78.91 -63.43)"/><path class="cls-12" d="M117.59,153.45a4.08,4.08,0,0,1,.6.18,5.55,5.55,0,0,1,.78.38c.23.14.55.37.73.51a3.94,3.94,0,0,1,.56.59,2.91,2.91,0,0,1,.35.63l.16.54a6.64,6.64,0,0,1,.09.66,4.13,4.13,0,0,1,0,.71,2.19,2.19,0,0,1-.17.53,2.92,2.92,0,0,1-.35.48,2.13,2.13,0,0,1-.44.38,2.48,2.48,0,0,1-.65.21,8.39,8.39,0,0,1-.93.09,4.24,4.24,0,0,1-.84-.06l-.72-.21a4,4,0,0,1-.75-.37,5.75,5.75,0,0,1-.63-.48,6.27,6.27,0,0,1-.53-.59,3.92,3.92,0,0,1-.44-.87,4,4,0,0,1-.17-.95,2.58,2.58,0,0,1,.14-.8,2.62,2.62,0,0,1,.34-.62,4.7,4.7,0,0,1,.44-.45,3.26,3.26,0,0,1,.47-.32,1.84,1.84,0,0,1,.48-.17,2.74,2.74,0,0,1,.51-.06h.51A3.78,3.78,0,0,1,117.59,153.45Z" transform="translate(-78.91 -63.43)"/><circle class="cls-14" cx="38.52" cy="92.79" r="2.33"/><path class="cls-3" d="M111.47,165.6a6.43,6.43,0,0,0-.7.83,8.48,8.48,0,0,0-.52.88c-.13.26-.31.65-.39.85a6.22,6.22,0,0,0-.26.83c0,.25-.11.65-.14.88a5.85,5.85,0,0,0,0,.94c0,.28.1.76.17,1.07s.16.73.22.94a7.07,7.07,0,0,0,.37.88c.15.27.43.74.63,1s.52.72.71,1a8.33,8.33,0,0,0,.85.81c.28.23.67.52.88.66s.62.37.91.52.81.37,1.14.49a11.18,11.18,0,0,0,1.14.34c.31.06.86.15,1.23.2s1,.08,1.37.08a9.45,9.45,0,0,0,1.57-.18,8.69,8.69,0,0,0,1.51-.47,10.34,10.34,0,0,0,1.07-.58c.24-.16.64-.46.89-.66a5.24,5.24,0,0,0,.82-.87,7.74,7.74,0,0,0,.6-1,8.84,8.84,0,0,0,.38-1,8,8,0,0,0,.2-1.08,6.06,6.06,0,0,0,0-1.2c0-.34-.18-1-.29-1.45a9.69,9.69,0,0,0-.51-1.47c-.17-.35-.47-.92-.68-1.27a8.63,8.63,0,0,0-.75-1c-.21-.23-.57-.58-.79-.79s-.63-.55-.91-.77a9.2,9.2,0,0,0-1.07-.68c-.31-.16-.81-.39-1.1-.52a6.83,6.83,0,0,0-1.16-.36,8.72,8.72,0,0,0-1.17-.15,9,9,0,0,0-1,0,8.36,8.36,0,0,0-1,.12,9,9,0,0,0-1.06.29,6.08,6.08,0,0,0-1.07.47,12.19,12.19,0,0,0-1,.68A11.73,11.73,0,0,0,111.47,165.6Z" transform="translate(-78.91 -63.43)"/><path class="cls-12" d="M111.47,165.6a6.43,6.43,0,0,0-.7.83,8.48,8.48,0,0,0-.52.88c-.13.26-.31.65-.39.85a6.22,6.22,0,0,0-.26.83c0,.25-.11.65-.14.88a5.85,5.85,0,0,0,0,.94c0,.28.1.76.17,1.07s.16.73.22.94a7.07,7.07,0,0,0,.37.88c.15.27.43.74.63,1s.52.72.71,1a8.33,8.33,0,0,0,.85.81c.28.23.67.52.88.66s.62.37.91.52.81.37,1.14.49a11.18,11.18,0,0,0,1.14.34c.31.06.86.15,1.23.2s1,.08,1.37.08a9.45,9.45,0,0,0,1.57-.18,8.69,8.69,0,0,0,1.51-.47,10.34,10.34,0,0,0,1.07-.58c.24-.16.64-.46.89-.66a5.24,5.24,0,0,0,.82-.87,7.74,7.74,0,0,0,.6-1,8.84,8.84,0,0,0,.38-1,8,8,0,0,0,.2-1.08,6.06,6.06,0,0,0,0-1.2c0-.34-.18-1-.29-1.45a9.69,9.69,0,0,0-.51-1.47c-.17-.35-.47-.92-.68-1.27a8.63,8.63,0,0,0-.75-1c-.21-.23-.57-.58-.79-.79s-.63-.55-.91-.77a9.2,9.2,0,0,0-1.07-.68c-.31-.16-.81-.39-1.1-.52a6.83,6.83,0,0,0-1.16-.36,8.72,8.72,0,0,0-1.17-.15,9,9,0,0,0-1,0,8.36,8.36,0,0,0-1,.12,9,9,0,0,0-1.06.29,6.08,6.08,0,0,0-1.07.47,12.19,12.19,0,0,0-1,.68A11.73,11.73,0,0,0,111.47,165.6Z" transform="translate(-78.91 -63.43)"/><path class="cls-13" d="M118.18,163.91c.19,0,.55.11.81.18a9.74,9.74,0,0,1,1.23.43,11.08,11.08,0,0,1,1.21.63c.25.17.71.49,1,.72a6.77,6.77,0,0,1,.91.83,13,13,0,0,1,.79,1.05c.22.33.5.77.61,1a6.18,6.18,0,0,1,.31.65c.07.17.2.56.29.88a7.85,7.85,0,0,1,.24,1,5.94,5.94,0,0,1,.09.69c0,.17,0,.43,0,.58s0,.41,0,.58-.05.46-.08.66a4.23,4.23,0,0,1-.23.79,7.18,7.18,0,0,1-.39.84,4.34,4.34,0,0,1-.52.71,7.34,7.34,0,0,1-.58.55,7.1,7.1,0,0,1-.76.51,7.35,7.35,0,0,1-1,.49c-.28.12-.69.26-.91.33l-.85.2a7.11,7.11,0,0,1-1.13.08c-.38,0-.92,0-1.18,0s-.79-.09-1.16-.15-.88-.2-1.16-.28a4.53,4.53,0,0,1-.93-.38L114,177c-.2-.1-.51-.29-.7-.4l-.6-.4a3.89,3.89,0,0,1-.48-.43c-.13-.14-.41-.47-.61-.74s-.45-.6-.55-.74l-.31-.51a5.44,5.44,0,0,1-.28-.54,2.94,2.94,0,0,1-.22-.61c-.05-.18-.13-.47-.17-.65s-.1-.48-.12-.67a5.62,5.62,0,0,1,0-.7,4.91,4.91,0,0,1,0-.67c0-.18.07-.51.11-.73s.09-.53.13-.66.1-.4.15-.58a4.53,4.53,0,0,1,.22-.59,3.56,3.56,0,0,1,.29-.54c.1-.14.25-.35.34-.45a4,4,0,0,1,.35-.37l.47-.39a6.09,6.09,0,0,1,.62-.42c.19-.11.63-.33,1-.49s.78-.34,1-.41.56-.17.81-.23a6.42,6.42,0,0,1,1-.15l1,0A4.14,4.14,0,0,1,118.18,163.91Z" transform="translate(-78.91 -63.43)"/><path class="cls-12" d="M118.18,163.91c.19,0,.55.11.81.18a9.74,9.74,0,0,1,1.23.43,11.08,11.08,0,0,1,1.21.63c.25.17.71.49,1,.72a6.77,6.77,0,0,1,.91.83,13,13,0,0,1,.79,1.05c.22.33.5.77.61,1a6.18,6.18,0,0,1,.31.65c.07.17.2.56.29.88a7.85,7.85,0,0,1,.24,1,5.94,5.94,0,0,1,.09.69c0,.17,0,.43,0,.58s0,.41,0,.58-.05.46-.08.66a4.23,4.23,0,0,1-.23.79,7.18,7.18,0,0,1-.39.84,4.34,4.34,0,0,1-.52.71,7.34,7.34,0,0,1-.58.55,7.1,7.1,0,0,1-.76.51,7.35,7.35,0,0,1-1,.49c-.28.12-.69.26-.91.33l-.85.2a7.11,7.11,0,0,1-1.13.08c-.38,0-.92,0-1.18,0s-.79-.09-1.16-.15-.88-.2-1.16-.28a4.53,4.53,0,0,1-.93-.38L114,177c-.2-.1-.51-.29-.7-.4l-.6-.4a3.89,3.89,0,0,1-.48-.43c-.13-.14-.41-.47-.61-.74s-.45-.6-.55-.74l-.31-.51a5.44,5.44,0,0,1-.28-.54,2.94,2.94,0,0,1-.22-.61c-.05-.18-.13-.47-.17-.65s-.1-.48-.12-.67a5.62,5.62,0,0,1,0-.7,4.91,4.91,0,0,1,0-.67c0-.18.07-.51.11-.73s.09-.53.13-.66.1-.4.15-.58a4.53,4.53,0,0,1,.22-.59,3.56,3.56,0,0,1,.29-.54c.1-.14.25-.35.34-.45a4,4,0,0,1,.35-.37l.47-.39a6.09,6.09,0,0,1,.62-.42c.19-.11.63-.33,1-.49s.78-.34,1-.41.56-.17.81-.23a6.42,6.42,0,0,1,1-.15l1,0A4.14,4.14,0,0,1,118.18,163.91Z" transform="translate(-78.91 -63.43)"/><circle class="cls-15" cx="38.52" cy="107.38" r="5.87"/><path class="cls-3" d="M193.08,152.72a4.76,4.76,0,0,0-.85.16,5.2,5.2,0,0,0-.91.35,4.31,4.31,0,0,0-.75.54,6.5,6.5,0,0,0-.63.66,4.63,4.63,0,0,0-.5.77,5.13,5.13,0,0,0-.32.8,4.55,4.55,0,0,0-.1.89,6.85,6.85,0,0,0,0,.77,2.1,2.1,0,0,0,.24.65,3,3,0,0,0,.41.59,2.23,2.23,0,0,0,.51.37,5.51,5.51,0,0,0,.69.27,4.29,4.29,0,0,0,.85.15,8.14,8.14,0,0,0,1,0,4.17,4.17,0,0,0,1-.24,6.06,6.06,0,0,0,.88-.45c.23-.15.6-.44.84-.63a4.19,4.19,0,0,0,.68-.74,3.45,3.45,0,0,0,.36-.72c.05-.19.12-.49.15-.66a4.17,4.17,0,0,0,0-.8,2.68,2.68,0,0,0-.16-.79,3.73,3.73,0,0,0-.42-.66,3.77,3.77,0,0,0-.59-.56,3.83,3.83,0,0,0-.73-.38,5.31,5.31,0,0,0-.86-.26A4.47,4.47,0,0,0,193.08,152.72Z" transform="translate(-78.91 -63.43)"/><path class="cls-12" d="M193.08,152.72a4.76,4.76,0,0,0-.85.16,5.2,5.2,0,0,0-.91.35,4.31,4.31,0,0,0-.75.54,6.5,6.5,0,0,0-.63.66,4.63,4.63,0,0,0-.5.77,5.13,5.13,0,0,0-.32.8,4.55,4.55,0,0,0-.1.89,6.85,6.85,0,0,0,0,.77,2.1,2.1,0,0,0,.24.65,3,3,0,0,0,.41.59,2.23,2.23,0,0,0,.51.37,5.51,5.51,0,0,0,.69.27,4.29,4.29,0,0,0,.85.15,8.14,8.14,0,0,0,1,0,4.17,4.17,0,0,0,1-.24,6.06,6.06,0,0,0,.88-.45c.23-.15.6-.44.84-.63a4.19,4.19,0,0,0,.68-.74,3.45,3.45,0,0,0,.36-.72c.05-.19.12-.49.15-.66a4.17,4.17,0,0,0,0-.8,2.68,2.68,0,0,0-.16-.79,3.73,3.73,0,0,0-.42-.66,3.77,3.77,0,0,0-.59-.56,3.83,3.83,0,0,0-.73-.38,5.31,5.31,0,0,0-.86-.26A4.47,4.47,0,0,0,193.08,152.72Z" transform="translate(-78.91 -63.43)"/><path class="cls-13" d="M192.77,153.45a4.08,4.08,0,0,0-.6.18,4.8,4.8,0,0,0-.79.39c-.22.14-.55.36-.72.5a4.07,4.07,0,0,0-.57.6,3,3,0,0,0-.34.63c-.05.15-.12.39-.16.53a4.8,4.8,0,0,0-.09.66,3.3,3.3,0,0,0,0,.71,1.83,1.83,0,0,0,.17.53,2.92,2.92,0,0,0,.35.48,1.72,1.72,0,0,0,.44.38,2.36,2.36,0,0,0,.65.21,6.52,6.52,0,0,0,.92.09,4.13,4.13,0,0,0,.84-.06l.73-.21a3.48,3.48,0,0,0,.75-.37,6.9,6.9,0,0,0,.63-.48,5.19,5.19,0,0,0,.52-.59,3.54,3.54,0,0,0,.44-.87,3.44,3.44,0,0,0,.18-.95,2.58,2.58,0,0,0-.14-.8,2.64,2.64,0,0,0-.35-.62,6.14,6.14,0,0,0-.43-.45,3.26,3.26,0,0,0-.47-.32,2.52,2.52,0,0,0-.48-.17,3,3,0,0,0-.52-.06h-.51Z" transform="translate(-78.91 -63.43)"/><path class="cls-12" d="M192.77,153.45a4.08,4.08,0,0,0-.6.18,4.8,4.8,0,0,0-.79.39c-.22.14-.55.36-.72.5a4.07,4.07,0,0,0-.57.6,3,3,0,0,0-.34.63c-.05.15-.12.39-.16.53a4.8,4.8,0,0,0-.09.66,3.3,3.3,0,0,0,0,.71,1.83,1.83,0,0,0,.17.53,2.92,2.92,0,0,0,.35.48,1.72,1.72,0,0,0,.44.38,2.36,2.36,0,0,0,.65.21,6.52,6.52,0,0,0,.92.09,4.13,4.13,0,0,0,.84-.06l.73-.21a3.48,3.48,0,0,0,.75-.37,6.9,6.9,0,0,0,.63-.48,5.19,5.19,0,0,0,.52-.59,3.54,3.54,0,0,0,.44-.87,3.44,3.44,0,0,0,.18-.95,2.58,2.58,0,0,0-.14-.8,2.64,2.64,0,0,0-.35-.62,6.14,6.14,0,0,0-.43-.45,3.26,3.26,0,0,0-.47-.32,2.52,2.52,0,0,0-.48-.17,3,3,0,0,0-.52-.06h-.51Z" transform="translate(-78.91 -63.43)"/><circle class="cls-14" cx="114.01" cy="92.79" r="2.33"/><path class="cls-3" d="M198.88,165.6a7.32,7.32,0,0,1,.71.83,8.64,8.64,0,0,1,.52.89c.13.26.3.64.39.85a4.76,4.76,0,0,1,.25.83c.05.24.12.64.15.88a4.81,4.81,0,0,1,0,.93c0,.28-.1.76-.16,1.07s-.16.73-.22.94a6.49,6.49,0,0,1-.37.88c-.15.28-.43.74-.63,1s-.53.72-.72.94a8.4,8.4,0,0,1-.85.82,10.81,10.81,0,0,1-.88.65,8.91,8.91,0,0,1-.91.52,11.65,11.65,0,0,1-1.13.49,7.81,7.81,0,0,1-1.15.34c-.3.06-.85.15-1.22.2s-1,.08-1.37.08a9.45,9.45,0,0,1-1.57-.18,8.17,8.17,0,0,1-1.51-.47,7,7,0,0,1-1.07-.58c-.25-.16-.65-.46-.9-.66a5.19,5.19,0,0,1-.81-.87,7.74,7.74,0,0,1-.6-1,8.84,8.84,0,0,1-.38-1,6.78,6.78,0,0,1-.2-1.07,5.45,5.45,0,0,1,0-1.21c0-.34.19-1,.3-1.45a9,9,0,0,1,.51-1.47,14,14,0,0,1,.68-1.26,6.51,6.51,0,0,1,.75-1c.21-.23.56-.58.79-.79s.63-.55.91-.76a7.45,7.45,0,0,1,1.07-.68c.31-.16.8-.4,1.1-.53a7.51,7.51,0,0,1,1.16-.35,11,11,0,0,1,1.16-.16,9,9,0,0,1,1,0,8.12,8.12,0,0,1,1,.13,9,9,0,0,1,1.07.28,6.08,6.08,0,0,1,1.07.47c.27.16.73.46,1,.68A11.86,11.86,0,0,1,198.88,165.6Z" transform="translate(-78.91 -63.43)"/><path class="cls-12" d="M198.88,165.6a7.32,7.32,0,0,1,.71.83,8.64,8.64,0,0,1,.52.89c.13.26.3.64.39.85a4.76,4.76,0,0,1,.25.83c.05.24.12.64.15.88a4.81,4.81,0,0,1,0,.93c0,.28-.1.76-.16,1.07s-.16.73-.22.94a6.49,6.49,0,0,1-.37.88c-.15.28-.43.74-.63,1s-.53.72-.72.94a8.4,8.4,0,0,1-.85.82,10.81,10.81,0,0,1-.88.65,8.91,8.91,0,0,1-.91.52,11.65,11.65,0,0,1-1.13.49,7.81,7.81,0,0,1-1.15.34c-.3.06-.85.15-1.22.2s-1,.08-1.37.08a9.45,9.45,0,0,1-1.57-.18,8.17,8.17,0,0,1-1.51-.47,7,7,0,0,1-1.07-.58c-.25-.16-.65-.46-.9-.66a5.19,5.19,0,0,1-.81-.87,7.74,7.74,0,0,1-.6-1,8.84,8.84,0,0,1-.38-1,6.78,6.78,0,0,1-.2-1.07,5.45,5.45,0,0,1,0-1.21c0-.34.19-1,.3-1.45a9,9,0,0,1,.51-1.47,14,14,0,0,1,.68-1.26,6.51,6.51,0,0,1,.75-1c.21-.23.56-.58.79-.79s.63-.55.91-.76a7.45,7.45,0,0,1,1.07-.68c.31-.16.8-.4,1.1-.53a7.51,7.51,0,0,1,1.16-.35,11,11,0,0,1,1.16-.16,9,9,0,0,1,1,0,8.12,8.12,0,0,1,1,.13,9,9,0,0,1,1.07.28,6.08,6.08,0,0,1,1.07.47c.27.16.73.46,1,.68A11.86,11.86,0,0,1,198.88,165.6Z" transform="translate(-78.91 -63.43)"/><path class="cls-13" d="M192.17,163.91l-.81.18a9.42,9.42,0,0,0-2.43,1.06c-.26.17-.71.5-1,.72a8.3,8.3,0,0,0-.91.84,11.24,11.24,0,0,0-.78,1c-.23.34-.5.77-.61,1s-.25.49-.32.66-.19.56-.29.87-.2.75-.24,1-.07.52-.09.69,0,.44,0,.58,0,.41,0,.58,0,.46.08.66a5.14,5.14,0,0,0,.22.8,8.09,8.09,0,0,0,.4.84,4.81,4.81,0,0,0,.52.71c.16.17.42.41.57.54a8.86,8.86,0,0,0,.76.52c.26.15.7.37,1,.49a9.14,9.14,0,0,0,.91.32,7.53,7.53,0,0,0,.85.2,7,7,0,0,0,1.13.09l1.18,0c.27,0,.79-.09,1.15-.16s.89-.19,1.17-.27a5.88,5.88,0,0,0,.93-.39l.79-.43c.19-.1.51-.28.69-.4a6.24,6.24,0,0,0,.6-.4,4.87,4.87,0,0,0,.49-.43c.13-.13.4-.46.61-.73s.45-.61.54-.75l.32-.5c.08-.14.21-.38.28-.54a5.65,5.65,0,0,0,.22-.62c.05-.18.13-.47.17-.65s.09-.48.12-.67a5.62,5.62,0,0,0,0-.7,4.91,4.91,0,0,0,0-.67c0-.17-.08-.51-.11-.73s-.1-.52-.13-.66-.1-.4-.15-.57-.15-.45-.22-.6a3.64,3.64,0,0,0-.3-.54c-.09-.14-.25-.34-.33-.45l-.35-.37-.47-.39-.63-.42c-.19-.11-.63-.33-1-.48s-.79-.34-1-.41a8.05,8.05,0,0,0-.81-.24,7.33,7.33,0,0,0-1-.15c-.3,0-.74,0-1,0A4.3,4.3,0,0,0,192.17,163.91Z" transform="translate(-78.91 -63.43)"/><path class="cls-12" d="M192.17,163.91l-.81.18a9.42,9.42,0,0,0-2.43,1.06c-.26.17-.71.5-1,.72a8.3,8.3,0,0,0-.91.84,11.24,11.24,0,0,0-.78,1c-.23.34-.5.77-.61,1s-.25.49-.32.66-.19.56-.29.87-.2.75-.24,1-.07.52-.09.69,0,.44,0,.58,0,.41,0,.58,0,.46.08.66a5.14,5.14,0,0,0,.22.8,8.09,8.09,0,0,0,.4.84,4.81,4.81,0,0,0,.52.71c.16.17.42.41.57.54a8.86,8.86,0,0,0,.76.52c.26.15.7.37,1,.49a9.14,9.14,0,0,0,.91.32,7.53,7.53,0,0,0,.85.2,7,7,0,0,0,1.13.09l1.18,0c.27,0,.79-.09,1.15-.16s.89-.19,1.17-.27a5.88,5.88,0,0,0,.93-.39l.79-.43c.19-.1.51-.28.69-.4a6.24,6.24,0,0,0,.6-.4,4.87,4.87,0,0,0,.49-.43c.13-.13.4-.46.61-.73s.45-.61.54-.75l.32-.5c.08-.14.21-.38.28-.54a5.65,5.65,0,0,0,.22-.62c.05-.18.13-.47.17-.65s.09-.48.12-.67a5.62,5.62,0,0,0,0-.7,4.91,4.91,0,0,0,0-.67c0-.17-.08-.51-.11-.73s-.1-.52-.13-.66-.1-.4-.15-.57-.15-.45-.22-.6a3.64,3.64,0,0,0-.3-.54c-.09-.14-.25-.34-.33-.45l-.35-.37-.47-.39-.63-.42c-.19-.11-.63-.33-1-.48s-.79-.34-1-.41a8.05,8.05,0,0,0-.81-.24,7.33,7.33,0,0,0-1-.15c-.3,0-.74,0-1,0A4.3,4.3,0,0,0,192.17,163.91Z" transform="translate(-78.91 -63.43)"/><circle class="cls-15" cx="114.01" cy="107.38" r="5.87"/><path class="cls-16" d="M167.8,103.83a.25.25,0,0,0-.25.25v43a.23.23,0,0,0,.25.24l5.07-.11.5,0,9.72-.48.5,0,5.66-.34.5,0,5.47-.4.5,0,1.83-.15a.27.27,0,0,0,.25-.27V104.15a.25.25,0,0,0-.25-.25Z" transform="translate(-78.91 -63.43)"/><polygon class="cls-17" points="127.06 39.23 127.06 133.6 79.52 133.6 79.52 38.08 127.06 38.08 127.06 39.23"/><path class="cls-10" d="M109,88.85a.45.45,0,0,0-.45.45v7.58a.45.45,0,0,0,.45.45h92.22a.46.46,0,0,0,.46-.45v-7.6a.46.46,0,0,0-.46-.45Z" transform="translate(-78.91 -63.43)"/><path class="cls-18" d="M109,88.85a.45.45,0,0,0-.45.45v7.58a.45.45,0,0,0,.45.45h92.22a.46.46,0,0,0,.46-.45v-7.6a.46.46,0,0,0-.46-.45Z" transform="translate(-78.91 -63.43)"/><rect class="cls-19" x="29.78" y="25.37" width="9.75" height="6.3"/><circle class="cls-20" cx="34.65" cy="28.53" r="2.53"/><rect class="cls-19" x="113.01" y="25.37" width="9.75" height="6.3"/><circle class="cls-20" cx="117.88" cy="28.53" r="2.53"/><rect class="cls-21" x="52.48" y="26.12" width="47.5" height="7.29"/><line class="cls-16" x1="81.41" y1="38.08" x2="81.41" y2="85.24"/><polyline class="cls-17" points="79.52 38.08 26.32 38.08 26.32 82.66"/><line class="cls-16" x1="83.04" y1="38.08" x2="83.04" y2="85.21"/><line class="cls-16" x1="124.55" y1="38.08" x2="124.55" y2="82.94"/><line class="cls-16" x1="125.93" y1="38.08" x2="125.93" y2="82.79"/><path class="cls-16" d="M85.74,198.41l3.35-30.13a16.71,16.71,0,0,0,.07-2L86.3,95.83a2.67,2.67,0,0,0-.24-1.18,1.68,1.68,0,0,1,0-1.1,8.37,8.37,0,0,1,.61-1.66,10.89,10.89,0,0,1,1-1.5c.32-.41.9-1.07,1.28-1.47l.62-.65A9.75,9.75,0,0,1,91.12,87l2.26-1.4c.47-.29,1.25-.73,1.74-1l2.3-1.17a13.54,13.54,0,0,1,1.86-.73l4.91-1.4c.53-.15,1.4-.34,2-.43l6.78-1.06c.55-.08,1.44-.19,2-.24l4.11-.4c.54,0,1.44-.12,2-.15l5.11-.32,2-.09,4.79-.13,2,0,3.85,0h32.88l3.85,0,2,0,4.79.13,2,.09,5.11.32c.55,0,1.45.1,2,.15l4.11.4c.55,0,1.44.16,2,.24l6.78,1.06c.55.09,1.42.28,2,.43l4.91,1.4a14.07,14.07,0,0,1,1.86.73l2.3,1.17c.49.25,1.27.69,1.74,1l2.26,1.4a9.75,9.75,0,0,1,1.55,1.25l.62.65c.38.4,1,1.06,1.28,1.47a10.89,10.89,0,0,1,1,1.5,8.37,8.37,0,0,1,.61,1.66,1.68,1.68,0,0,1,0,1.1,2.67,2.67,0,0,0-.24,1.18l-2.86,70.45a16.71,16.71,0,0,0,.07,2l3.35,30.13" transform="translate(-78.91 -63.43)"/><path class="cls-16" d="M104.32,81.37v1.84c0,.55.08,1,.17,1l1.15-.23.85-.18c.53-.11,1.42-.27,2-.34l1.08-.15,2-.25,1.92-.21c.55-.07,1.45-.16,2-.21l1.49-.13c.55,0,1.44-.12,2-.15l2.84-.17,2-.11,6.05-.3,2-.08,5.08-.15,2,0,14.73,0h3.51l14.73,0,2,0,5.08.15,2,.08,6,.3,2,.11,2.84.17c.54,0,1.44.1,2,.15l1.48.13c.55,0,1.45.14,2,.21l1.92.21,2,.25,1.08.15c.55.07,1.43.23,2,.34l.85.18,1.14.23c.1,0,.17-.42.17-1V81.37" transform="translate(-78.91 -63.43)"/><path class="cls-16" d="M126.05,67.42l.47.76a3.6,3.6,0,0,0,1.39,1.15l.8.34a16.22,16.22,0,0,0,1.89.65l1.59.43a16.12,16.12,0,0,0,2,.37l.9.09c.55.06,1.45.11,2,.11h1.5a16.66,16.66,0,0,0,2-.15l1.31-.2a11.53,11.53,0,0,0,1.92-.5l1.65-.62A10.57,10.57,0,0,0,147.2,69l.2-.12a16.47,16.47,0,0,0,1.41-1,3.33,3.33,0,0,0,.76-.91l.18-.44" transform="translate(-78.91 -63.43)"/><path class="cls-16" d="M127,68.93l.69-.27c.38-.15,1.12-.4,1.65-.56h0a18.83,18.83,0,0,1,1.94-.46l.93-.16c.54-.1,1.43-.21,2-.26l.5,0c.55,0,1.45-.09,2-.09l1.23,0c.55,0,1.43,0,1.95,0s1.41.07,2,.13l1.25.12a13,13,0,0,1,2,.37l.71.2c.53.15,1.21.37,1.5.48l.54.2" transform="translate(-78.91 -63.43)"/><path class="cls-16" d="M125,67.3l.31.6a4.88,4.88,0,0,0,1.12,1.19l.16.12a8.07,8.07,0,0,0,1.67.92c.49.17,1.31.43,1.85.57l.64.17c.53.15,1.41.34,2,.43l.62.11c.54.09,1.43.19,2,.22l.4,0c.55,0,1.44,0,2,0h.52c.55,0,1.45,0,2-.1l1.15-.12a14.36,14.36,0,0,0,2-.35l1.21-.31a10.13,10.13,0,0,0,1.85-.72l.5-.26a16.53,16.53,0,0,0,1.68-1.08l.8-.61a5.59,5.59,0,0,0,1.17-1.24l.37-.64" transform="translate(-78.91 -63.43)"/><path class="cls-22" d="M122.52,73.83a.28.28,0,0,1,.26-.26l11.35-.6.5,0,9.69-.36h.5l12.61-.06a.25.25,0,0,1,.25.25V77a.25.25,0,0,1-.25.25h-9.06l-9.48.16h-.5l-15.69.44a.25.25,0,0,1-.24-.25Z" transform="translate(-78.91 -63.43)"/><path class="cls-16" d="M122.52,73.83a.28.28,0,0,1,.26-.26l11.35-.6.5,0,9.69-.36h.5l12.61-.06a.25.25,0,0,1,.25.25V77a.25.25,0,0,1-.25.25h-9.06l-9.48.16h-.5l-15.69.44a.25.25,0,0,1-.24-.25Z" transform="translate(-78.91 -63.43)"/><polyline class="cls-23" points="40.53 2.41 40.53 12.8 29.34 14.56 29.34 5.92"/><line class="cls-16" x1="27.29" y1="6.7" x2="27.29" y2="17.45"/><polygon class="cls-24" points="122.8 20 116.19 19.19 105.36 18.5 94.44 18.09 72.25 17.94 55.7 18.16 42.6 18.74 34.26 19.4 27.77 20.26 25.45 20.74 25.22 19.45 25.22 21.77 127.3 21.77 127.69 21.77 127.69 19.84 127.36 20.7 122.8 20"/><polygon class="cls-25" points="7.71 50.92 6.58 84.61 8.88 84.61 7.71 50.92"/><polygon class="cls-25" points="4.57 42.49 6.33 42.59 4.44 93.79 2.8 93.79 4.57 42.49"/><polyline class="cls-16" points="4.19 37.7 6.58 37.7 6.85 38.46 3.53 137.19"/><line class="cls-16" x1="0.86" y1="132.84" x2="3.68" y2="132.84"/><path class="cls-26" d="M86.26,94.83l.94,8.83c.06.54.14,1.44.17,2l.89,14.86c0,.54.07,1.44.08,2l.17,8.82c0,.55,0,1.45,0,2L88.68,146c0,.55,0,1.45,0,2l.07,8c0,.55,0,1.45,0,2l-.2,14.37" transform="translate(-78.91 -63.43)"/><polygon class="cls-25" points="144.9 50.92 146.03 84.61 143.72 84.61 144.9 50.92"/><polygon class="cls-25" points="148.04 42.49 146.28 42.59 148.17 93.79 149.8 93.79 148.04 42.49"/><polyline class="cls-16" points="148.42 37.7 146.03 37.7 145.76 38.46 149.08 137.19"/><line class="cls-16" x1="151.75" y1="132.84" x2="148.92" y2="132.84"/><path class="cls-26" d="M224.17,94.83l-.94,8.83c-.06.54-.14,1.44-.17,2l-.89,14.86c0,.54-.07,1.44-.08,2l-.17,8.82c0,.55,0,1.45,0,2L221.75,146c0,.55,0,1.45,0,2l-.07,8c0,.55,0,1.45,0,2l.2,14.37" transform="translate(-78.91 -63.43)"/></svg>