<svg id="图层_7" data-name="图层 7" xmlns="http://www.w3.org/2000/svg" viewBox="0 0 139.82 165.06">
    <defs>
        <style>
            .cls-1 {
                fill: #c8c9c9;
            }

            .cls-2 {
                fill: #00b396;
            }

            .cls-11,
            .cls-16,
            .cls-19,
            .cls-20,
            .cls-21,
            .cls-3,
            .cls-5,
            .cls-6,
            .cls-7,
            .cls-9 {
                fill: none;
            }

            .cls-3 {
                stroke: #00b396;
            }

            .cls-11,
            .cls-12,
            .cls-16,
            .cls-17,
            .cls-19,
            .cls-20,
            .cls-21,
            .cls-3,
            .cls-5,
            .cls-6,
            .cls-7,
            .cls-9 {
                stroke-miterlimit: 10;
            }

            .cls-3,
            .cls-6 {
                stroke-width: 0.49px;
            }

            .cls-4 {
                fill: #3d3a39;
            }

            .cls-5,
            .cls-6 {
                stroke: #3d3a39;
            }

            .cls-20,
            .cls-5 {
                stroke-width: 0.75px;
            }

            .cls-16,
            .cls-17,
            .cls-19,
            .cls-20,
            .cls-21,
            .cls-7 {
                stroke: #221714;
            }

            .cls-17,
            .cls-8 {
                fill: #727171;
            }

            .cls-9 {
                stroke: #727171;
                stroke-width: 0.8px;
            }

            .cls-10 {
                fill: #f6f7f7;
            }

            .cls-11 {
                stroke: #eee;
                stroke-width: 1.5px;
            }

            .cls-12 {
                fill: #dbdcdc;
                stroke: #dbdcdc;
                stroke-width: 1.4px;
            }

            .cls-13 {
                fill: #bf1626;
            }

            .cls-14 {
                fill: #221714;
            }

            .cls-15 {
                fill: #9e9f9f;
            }

            .cls-16 {
                stroke-width: 1.01px;
            }

            .cls-17 {
                stroke-width: 0.47px;
            }

            .cls-18 {
                fill: #595757;
            }

            .cls-19 {
                stroke-width: 0.1px;
            }

            .cls-21 {
                stroke-width: 0.5px;
            }

            .cls-22 {
                fill: #ededed;
            }

            .cls-23 {
                fill: #3c3a39;
            }
        </style>
    </defs>
    <title>萝S1车头</title>
    <polygon class="cls-1"
        points="137.17 134.17 136.04 148.49 134.91 152.15 131.81 157.61 128.89 160.58 124.47 163.19 120.39 164.47 100.02 164.6 95.52 164.6 94.64 164 94.64 134.95 45.4 134.95 45.4 158.37 44.94 164.35 20.58 164.35 15.6 163.73 11.8 161.39 7.62 157.28 4.8 151.88 3.45 144.42 1.04 110.48 137.17 108.26 139 108.26 137.17 134.17" />
    <path class="cls-2"
        d="M226.08,94.79c-.12-.27-.53-1.1-.92-1.85a16.15,16.15,0,0,0-1.6-2.4c-.49-.57-1.55-1.62-2.34-2.34a18.76,18.76,0,0,0-2.78-2,12,12,0,0,0-2.92-1c-.88-.17-2.44-.58-3.47-.89L204.65,82c-1-.32-2.74-.76-3.8-1l-12.54-2.65c-1.06-.23-2.8-.53-3.88-.67l-2.67-.36c-1.08-.15-2.84-.31-3.92-.36l-11.41-.56c-1.08,0-2.85,0-3.93,0l-8.67.52c-1.08.06-2.84.23-3.91.38l-2.68.36c-1.07.14-2.82.44-3.88.67L130.83,81c-1.06.23-2.78.64-3.83.92l-6.48,1.75c-1,.28-2.73.82-3.74,1.21l-1.85.71a16.68,16.68,0,0,0-3.41,1.88l-.91.68a13.87,13.87,0,0,0-2.46,2.44,24.08,24.08,0,0,0-1.7,3l-.5,1.1a15.69,15.69,0,0,0-1.07,3.74l-.78,6.31c-.13,1.08-.38,2.83-.54,3.9l-.44,2.88c-.16,1.07-.39,2.82-.5,3.9l-6,57.88a30.15,30.15,0,0,0-.11,3.92l.39,8a2.09,2.09,0,0,0,2.06,2h.43c1.08,0,2.54,0,3.23,0a6.07,6.07,0,0,1,2.43.68,11.72,11.72,0,0,0,3.06,1c1,.18,2.77.44,3.85.58l.36.05c1.07.14,2.83.31,3.91.39l3.17.23c1.08.07,2.84.23,3.92.35l3,.33c1.08.12,2.84.35,3.91.51l25.09,3.7a39.33,39.33,0,0,0,3.92.32l5.65.11c1.08,0,2.85,0,3.93,0l3.6-.09c1.08,0,2.84-.18,3.91-.33l25.1-3.7c1.07-.16,2.82-.39,3.9-.51l3-.33c1.07-.12,2.84-.28,3.92-.35l3.16-.23c1.08-.08,2.84-.25,3.92-.39l.36-.05c1.07-.14,2.8-.4,3.84-.58a11.72,11.72,0,0,0,3.06-1,6.17,6.17,0,0,1,2.43-.68c.7,0,2.15,0,3.23,0h.43a2.09,2.09,0,0,0,2.06-2l.4-8a32,32,0,0,0-.11-3.92l-5.3-51.38c-.12-1.08-.32-2.84-.46-3.91l-1.44-11.27c-.14-1.07-.37-2.83-.52-3.9l-.76-5.63A17.34,17.34,0,0,0,226.08,94.79Z"
        transform="translate(-95.9 -75.81)" />
    <path class="cls-3"
        d="M226.08,94.79c-.12-.27-.53-1.1-.92-1.85a16.15,16.15,0,0,0-1.6-2.4c-.49-.57-1.55-1.62-2.34-2.34a18.76,18.76,0,0,0-2.78-2,12,12,0,0,0-2.92-1c-.88-.17-2.44-.58-3.47-.89L204.65,82c-1-.32-2.74-.76-3.8-1l-12.54-2.65c-1.06-.23-2.8-.53-3.88-.67l-2.67-.36c-1.08-.15-2.84-.31-3.92-.36l-11.41-.56c-1.08,0-2.85,0-3.93,0l-8.67.52c-1.08.06-2.84.23-3.91.38l-2.68.36c-1.07.14-2.82.44-3.88.67L130.83,81c-1.06.23-2.78.64-3.83.92l-6.48,1.75c-1,.28-2.73.82-3.74,1.21l-1.85.71a16.68,16.68,0,0,0-3.41,1.88l-.91.68a13.87,13.87,0,0,0-2.46,2.44,24.08,24.08,0,0,0-1.7,3l-.5,1.1a15.69,15.69,0,0,0-1.07,3.74l-.78,6.31c-.13,1.08-.38,2.83-.54,3.9l-.44,2.88c-.16,1.07-.39,2.82-.5,3.9l-6,57.88a30.15,30.15,0,0,0-.11,3.92l.39,8a2.09,2.09,0,0,0,2.06,2h.43c1.08,0,2.54,0,3.23,0a6.07,6.07,0,0,1,2.43.68,11.72,11.72,0,0,0,3.06,1c1,.18,2.77.44,3.85.58l.36.05c1.07.14,2.83.31,3.91.39l3.17.23c1.08.07,2.84.23,3.92.35l3,.33c1.08.12,2.84.35,3.91.51l25.09,3.7a39.33,39.33,0,0,0,3.92.32l5.65.11c1.08,0,2.85,0,3.93,0l3.6-.09c1.08,0,2.84-.18,3.91-.33l25.1-3.7c1.07-.16,2.82-.39,3.9-.51l3-.33c1.07-.12,2.84-.28,3.92-.35l3.16-.23c1.08-.08,2.84-.25,3.92-.39l.36-.05c1.07-.14,2.8-.4,3.84-.58a11.72,11.72,0,0,0,3.06-1,6.17,6.17,0,0,1,2.43-.68c.7,0,2.15,0,3.23,0h.43a2.09,2.09,0,0,0,2.06-2l.4-8a32,32,0,0,0-.11-3.92l-5.3-51.38c-.12-1.08-.32-2.84-.46-3.91l-1.44-11.27c-.14-1.07-.37-2.83-.52-3.9l-.76-5.63A17.34,17.34,0,0,0,226.08,94.79Z"
        transform="translate(-95.9 -75.81)" />
    <path class="cls-4"
        d="M117.85,84.15a.33.33,0,0,0-.24.31V163a.25.25,0,0,0,.25.25h96.07a.25.25,0,0,0,.25-.25V84.54a.35.35,0,0,0-.24-.31l-9.51-2.44-.49-.13-7.18-1.85-.49-.1-11.88-2.12-.5-.06-9.83-.78-.5,0-8.38-.4h-.5l-14.15.77-.5.06-8.79,1.46-.49.1Z"
        transform="translate(-95.9 -75.81)" />
    <path class="cls-5"
        d="M117.85,84.15a.33.33,0,0,0-.24.31V163a.25.25,0,0,0,.25.25h96.07a.25.25,0,0,0,.25-.25V84.54a.35.35,0,0,0-.24-.31l-9.51-2.44-.49-.13-7.18-1.85-.49-.1-11.88-2.12-.5-.06-9.83-.78-.5,0-8.38-.4h-.5l-14.15.77-.5.06-8.79,1.46-.49.1Z"
        transform="translate(-95.9 -75.81)" />
    <path class="cls-4"
        d="M162.36,197.2c1.46.06,4,.07,5.61,0l.72,0c1.62-.05,4.27-.16,5.9-.23l2.15-.1c1.63-.07,4.16-.3,5.63-.49s3.65-.51,4.84-.69l4.38-.7c1.23-.2,3.13-.57,4.25-.81s3.12-.78,4.46-1.18l4.94-1.44c1.38-.4,3.37-1.08,4.42-1.51s2.63-1.19,3.53-1.68,2.26-1.28,3-1.73,2-1.26,2.64-1.78,1.8-1.42,2.49-2,1.78-1.51,2.43-2.1a11.51,11.51,0,0,0,1.71-1.91,15.75,15.75,0,0,0,1.12-2.57c.33-.94.74-2.16.92-2.69s1.66-1,3.28-1h3.62c.08,0,.14-.15.12-.33l-.34-3.26-5.14-49.27c-.17-1.62-.36-3.49-.42-4.16s-.29-2.55-.5-4.16l-.88-6.67-.43-3.2c0-.15-.22-.27-.45-.27h-1.64a2.13,2.13,0,0,0-1.72.89,12.23,12.23,0,0,0-.69,3.66,42,42,0,0,0,.09,5.7l.81,8.19c.16,1.62.41,4.27.56,5.88l.79,8.34c.15,1.62.39,4.26.54,5.88l1,11.07a52.65,52.65,0,0,1,.14,5.89l-.12,2.65c-.07,1.62-.26,4.27-.42,5.88l0,.28c-.16,1.62-.51,4-.77,5.23a14.12,14.12,0,0,1-1.61,4,24.62,24.62,0,0,1-2.72,3.31,42.74,42.74,0,0,1-3.42,3c-1,.77-2.7,1.89-3.75,2.5a42.51,42.51,0,0,1-4.06,2c-1.18.49-3.38,1.27-4.88,1.72l-4.16,1.27c-.78.24-2.39.67-3.57,1s-3.45.71-5.06.94l-.81.12-5.85.82-.48.06c-1.6.22-4.25.48-5.87.59h-.08c-1.62.11-4,.23-5.41.28s-3.79.13-5.41.17h-.11c-1.63,0-3.9,0-5.05,0l-4.56-.17c-1.35,0-3.78-.17-5.4-.28h-.09c-1.62-.11-4.26-.37-5.87-.59l-.47-.06-5.85-.82-.82-.12c-1.6-.23-3.88-.65-5.06-.94s-2.78-.72-3.56-1l-4.16-1.27c-1.5-.45-3.7-1.23-4.89-1.72a42.32,42.32,0,0,1-4.05-2,43.62,43.62,0,0,1-3.75-2.5,42.74,42.74,0,0,1-3.42-3,23.88,23.88,0,0,1-2.72-3.31,14.12,14.12,0,0,1-1.61-4c-.26-1.26-.61-3.61-.77-5.23l0-.28c-.16-1.61-.35-4.26-.43-5.88L105,156.8a50.36,50.36,0,0,1,.14-5.89l1-11.07c.15-1.62.4-4.26.55-5.88l.78-8.34c.16-1.61.41-4.26.57-5.88l.8-8.19a42,42,0,0,0,.1-5.7,12.56,12.56,0,0,0-.69-3.66,2.15,2.15,0,0,0-1.72-.89H105c-.23,0-.44.12-.46.27l-.42,3.2-.88,6.67c-.22,1.61-.44,3.48-.5,4.16s-.25,2.54-.42,4.16L97.13,169l-.34,3.26c0,.18,0,.33.12.33h3.61c1.63,0,3.1.44,3.28,1l.92,2.69a16.67,16.67,0,0,0,1.12,2.57,11.63,11.63,0,0,0,1.72,1.91c.65.59,1.75,1.54,2.43,2.1s1.8,1.45,2.48,2,1.88,1.32,2.65,1.78,2.14,1.23,3,1.73,2.49,1.25,3.53,1.68,3,1.11,4.41,1.51L131,193c1.34.4,3.35.93,4.46,1.18s3,.61,4.24.81l4.39.7c1.18.18,3.36.49,4.83.69s4,.42,5.63.49l2.16.1Z"
        transform="translate(-95.9 -75.81)" />
    <path class="cls-6"
        d="M162.36,197.2c1.46.06,4,.07,5.61,0l.72,0c1.62-.05,4.27-.16,5.9-.23l2.15-.1c1.63-.07,4.16-.3,5.63-.49s3.65-.51,4.84-.69l4.38-.7c1.23-.2,3.13-.57,4.25-.81s3.12-.78,4.46-1.18l4.94-1.44c1.38-.4,3.37-1.08,4.42-1.51s2.63-1.19,3.53-1.68,2.26-1.28,3-1.73,2-1.26,2.64-1.78,1.8-1.42,2.49-2,1.78-1.51,2.43-2.1a11.51,11.51,0,0,0,1.71-1.91,15.75,15.75,0,0,0,1.12-2.57c.33-.94.74-2.16.92-2.69s1.66-1,3.28-1h3.62c.08,0,.14-.15.12-.33l-.34-3.26-5.14-49.27c-.17-1.62-.36-3.49-.42-4.16s-.29-2.55-.5-4.16l-.88-6.67-.43-3.2c0-.15-.22-.27-.45-.27h-1.64a2.13,2.13,0,0,0-1.72.89,12.23,12.23,0,0,0-.69,3.66,42,42,0,0,0,.09,5.7l.81,8.19c.16,1.62.41,4.27.56,5.88l.79,8.34c.15,1.62.39,4.26.54,5.88l1,11.07a52.65,52.65,0,0,1,.14,5.89l-.12,2.65c-.07,1.62-.26,4.27-.42,5.88l0,.28c-.16,1.62-.51,4-.77,5.23a14.12,14.12,0,0,1-1.61,4,24.62,24.62,0,0,1-2.72,3.31,42.74,42.74,0,0,1-3.42,3c-1,.77-2.7,1.89-3.75,2.5a42.51,42.51,0,0,1-4.06,2c-1.18.49-3.38,1.27-4.88,1.72l-4.16,1.27c-.78.24-2.39.67-3.57,1s-3.45.71-5.06.94l-.81.12-5.85.82-.48.06c-1.6.22-4.25.48-5.87.59h-.08c-1.62.11-4,.23-5.41.28s-3.79.13-5.41.17h-.11c-1.63,0-3.9,0-5.05,0l-4.56-.17c-1.35,0-3.78-.17-5.4-.28h-.09c-1.62-.11-4.26-.37-5.87-.59l-.47-.06-5.85-.82-.82-.12c-1.6-.23-3.88-.65-5.06-.94s-2.78-.72-3.56-1l-4.16-1.27c-1.5-.45-3.7-1.23-4.89-1.72a42.32,42.32,0,0,1-4.05-2,43.62,43.62,0,0,1-3.75-2.5,42.74,42.74,0,0,1-3.42-3,23.88,23.88,0,0,1-2.72-3.31,14.12,14.12,0,0,1-1.61-4c-.26-1.26-.61-3.61-.77-5.23l0-.28c-.16-1.61-.35-4.26-.43-5.88L105,156.8a50.36,50.36,0,0,1,.14-5.89l1-11.07c.15-1.62.4-4.26.55-5.88l.78-8.34c.16-1.61.41-4.26.57-5.88l.8-8.19a42,42,0,0,0,.1-5.7,12.56,12.56,0,0,0-.69-3.66,2.15,2.15,0,0,0-1.72-.89H105c-.23,0-.44.12-.46.27l-.42,3.2-.88,6.67c-.22,1.61-.44,3.48-.5,4.16s-.25,2.54-.42,4.16L97.13,169l-.34,3.26c0,.18,0,.33.12.33h3.61c1.63,0,3.1.44,3.28,1l.92,2.69a16.67,16.67,0,0,0,1.12,2.57,11.63,11.63,0,0,0,1.72,1.91c.65.59,1.75,1.54,2.43,2.1s1.8,1.45,2.48,2,1.88,1.32,2.65,1.78,2.14,1.23,3,1.73,2.49,1.25,3.53,1.68,3,1.11,4.41,1.51L131,193c1.34.4,3.35.93,4.46,1.18s3,.61,4.24.81l4.39.7c1.18.18,3.36.49,4.83.69s4,.42,5.63.49l2.16.1Z"
        transform="translate(-95.9 -75.81)" />
    <polyline class="cls-7" points="2.48 134.88 135.19 134.88 137.17 134.88" />
    <rect class="cls-8" x="18.12" y="137.51" width="22.29" height="11.07" rx="0.79" />
    <rect class="cls-9" x="18.12" y="137.51" width="22.29" height="11.07" rx="0.79" />
    <path class="cls-10"
        d="M126.13,168.72a1.22,1.22,0,0,0-1.76,1.32l.47,7.74a10.11,10.11,0,0,0,.6,3,7.13,7.13,0,0,0,1.46,1.82,8,8,0,0,0,2.75,1.32c1,.26,2.65.64,3.73.84l12.94,2.46c1.08.21,1.55-.43,1.05-1.41l-3.19-6.29a16.22,16.22,0,0,0-2.29-3.22l-.17-.17a14.88,14.88,0,0,0-3.16-2.36l-1.49-.77a37.08,37.08,0,0,0-3.65-1.61Z"
        transform="translate(-95.9 -75.81)" />
    <path class="cls-11"
        d="M126.13,168.72a1.22,1.22,0,0,0-1.76,1.32l.47,7.74a10.11,10.11,0,0,0,.6,3,7.13,7.13,0,0,0,1.46,1.82,8,8,0,0,0,2.75,1.32c1,.26,2.65.64,3.73.84l12.94,2.46c1.08.21,1.55-.43,1.05-1.41l-3.19-6.29a16.22,16.22,0,0,0-2.29-3.22l-.17-.17a14.88,14.88,0,0,0-3.16-2.36l-1.49-.77a37.08,37.08,0,0,0-3.65-1.61Z"
        transform="translate(-95.9 -75.81)" />
    <circle class="cls-12" cx="36.16" cy="101.98" r="4.51" />
    <circle class="cls-13" cx="44.94" cy="106.1" r="2.8" />
    <circle class="cls-14" cx="30.93" cy="106.74" r="0.32" />
    <circle class="cls-14" cx="41.94" cy="109.78" r="0.32" />
    <circle class="cls-14" cx="51.49" cy="111.42" r="0.32" />
    <circle class="cls-14" cx="28.94" cy="92.74" r="0.32" />
    <circle class="cls-14" cx="38.85" cy="96.07" r="0.32" />
    <circle class="cls-14" cx="47.88" cy="102.92" r="0.32" />
    <path class="cls-10"
        d="M205.62,168.72a1.22,1.22,0,0,1,1.76,1.32l-.48,7.74a10.11,10.11,0,0,1-.6,3,7.08,7.08,0,0,1-1.45,1.82,8.06,8.06,0,0,1-2.76,1.32c-1,.26-2.65.64-3.73.84l-12.93,2.46c-1.08.21-1.56-.43-1.06-1.41l3.19-6.28a15.66,15.66,0,0,1,2.3-3.23l.16-.17a14.94,14.94,0,0,1,3.17-2.36l1.48-.77a37.25,37.25,0,0,1,3.66-1.61Z"
        transform="translate(-95.9 -75.81)" />
    <path class="cls-11"
        d="M205.62,168.72a1.22,1.22,0,0,1,1.76,1.32l-.48,7.74a10.11,10.11,0,0,1-.6,3,7.08,7.08,0,0,1-1.45,1.82,8.06,8.06,0,0,1-2.76,1.32c-1,.26-2.65.64-3.73.84l-12.93,2.46c-1.08.21-1.56-.43-1.06-1.41l3.19-6.28a15.66,15.66,0,0,1,2.3-3.23l.16-.17a14.94,14.94,0,0,1,3.17-2.36l1.48-.77a37.25,37.25,0,0,1,3.66-1.61Z"
        transform="translate(-95.9 -75.81)" />
    <circle class="cls-12" cx="103.79" cy="101.98" r="4.51" />
    <circle class="cls-13" cx="95.01" cy="106.1" r="2.8" />
    <circle class="cls-14" cx="109.02" cy="106.74" r="0.32" />
    <circle class="cls-14" cx="98.01" cy="109.78" r="0.32" />
    <circle class="cls-14" cx="88.47" cy="111.42" r="0.32" />
    <circle class="cls-14" cx="111.01" cy="92.74" r="0.32" />
    <circle class="cls-14" cx="101.1" cy="96.08" r="0.32" />
    <circle class="cls-14" cx="92.07" cy="102.92" r="0.32" />
    <path class="cls-7"
        d="M190.38,210.7v27.67a2,2,0,0,0,2,2h21.13a20.7,20.7,0,0,0,3.47-.31,23,23,0,0,0,3-.89,20.19,20.19,0,0,0,2.68-1.29c.66-.4,1.65-1.08,2.21-1.51a17.52,17.52,0,0,0,1.76-1.65c.41-.46,1.14-1.33,1.62-1.91a16.9,16.9,0,0,0,1.7-2.82,31,31,0,0,0,1.38-3.68l.06-.21a27.36,27.36,0,0,0,.74-3.92l.13-1.24c.11-1.1.27-2.89.35-4l.32-4.36c.08-1.1.21-2.9.29-4l1.92-27.29c.08-1.1.13-2.82.12-3.82s-.08-2.73-.15-3.83l-.2-2.77c-.07-1.1-.23-2.89-.36-4L228.76,115c-.12-1.09-.32-2.88-.45-4l-1.54-13.18a14.27,14.27,0,0,0-.66-3c-.24-.56-.86-1.81-1.39-2.78l-.13-.25a12.36,12.36,0,0,0-2.51-3l-1.62-1.34a16.87,16.87,0,0,0-3.39-2l-2.31-1A35.74,35.74,0,0,0,211,83.19l-3.58-.94-3.87-1L198,79.82c-1.07-.28-2.83-.64-3.91-.81l-9.67-1.52c-1.09-.17-2.87-.38-4-.45l-6.71-.47c-1.09-.07-2.89-.16-4-.19l-1.77,0c-1.1,0-2.9,0-4,0l-2,0c-1.09,0-2.89.12-4,.19l-6.7.47c-1.1.07-2.89.28-4,.45L137.66,79c-1.09.17-2.85.53-3.91.81l-5.53,1.42-3.87,1-3.59.94A36.53,36.53,0,0,0,117,84.47l-2.31,1a16.68,16.68,0,0,0-3.39,2l-1.62,1.34a12.1,12.1,0,0,0-2.5,3l-.14.25c-.52,1-1.15,2.22-1.39,2.78a14.88,14.88,0,0,0-.67,3l-1.64,13.19c-.14,1.09-.35,2.88-.47,4l-5.74,51.88c-.13,1.09-.29,2.88-.36,4l-.2,2.77c-.07,1.1-.14,2.82-.15,3.83s0,2.72.12,3.82l1.92,27.29c.08,1.09.21,2.89.29,4l.32,4.36c.08,1.1.24,2.89.35,4l.13,1.24a27.36,27.36,0,0,0,.74,3.92l.06.21a31,31,0,0,0,1.38,3.68,16.9,16.9,0,0,0,1.7,2.82c.48.58,1.21,1.45,1.62,1.91a17.52,17.52,0,0,0,1.76,1.65c.56.43,1.55,1.11,2.21,1.51a20.19,20.19,0,0,0,2.68,1.29,23,23,0,0,0,2.95.89,20.7,20.7,0,0,0,3.47.31h21.13a2,2,0,0,0,2-2V210.7"
        transform="translate(-95.9 -75.81)" />
    <rect class="cls-15" x="26.05" y="36.27" width="42.86" height="45.37" rx="0.25" />
    <rect class="cls-7" x="26.05" y="36.27" width="42.86" height="45.37" rx="0.25" />
    <rect class="cls-15" x="80.81" y="36.27" width="29.07" height="45.37" rx="0.25" />
    <rect class="cls-16" x="80.81" y="36.27" width="29.07" height="45.37" rx="0.25" />
    <rect class="cls-17" x="32.89" y="9.96" width="74.67" height="9.77" />
    <rect class="cls-18" x="53.75" y="11.42" width="32.94" height="6.85" />
    <path class="cls-14"
        d="M168.14,110h45.91c.55,0,.57-.13,0-.29l-6.65-2c-.53-.16-1.39-.4-1.93-.54l-4.75-1.2c-.53-.14-1.41-.34-1.94-.46L193,104.22c-.54-.12-1.42-.29-2-.38l-7.14-1.2c-.55-.09-1.44-.21-2-.26l-6.39-.62c-.55-.05-1.45-.11-2-.14l-3.6-.16-2-.06-.67,0h-2l-1.09,0-2,.06-3.6.16c-.55,0-1.45.09-2,.14l-6.4.62c-.55.05-1.44.17-2,.26l-7.14,1.2c-.55.09-1.43.26-2,.38l-5.87,1.27c-.54.12-1.42.32-1.95.46l-4.75,1.2c-.53.14-1.4.38-1.93.54l-6.64,2c-.53.16-.51.29,0,.29h50.21Z"
        transform="translate(-95.9 -75.81)" />
    <path class="cls-19"
        d="M168.14,110h45.91c.55,0,.57-.13,0-.29l-6.65-2c-.53-.16-1.39-.4-1.93-.54l-4.75-1.2c-.53-.14-1.41-.34-1.94-.46L193,104.22c-.54-.12-1.42-.29-2-.38l-7.14-1.2c-.55-.09-1.44-.21-2-.26l-6.39-.62c-.55-.05-1.45-.11-2-.14l-3.6-.16-2-.06-.67,0h-2l-1.09,0-2,.06-3.6.16c-.55,0-1.45.09-2,.14l-6.4.62c-.55.05-1.44.17-2,.26l-7.14,1.2c-.55.09-1.43.26-2,.38l-5.87,1.27c-.54.12-1.42.32-1.95.46l-4.75,1.2c-.53.14-1.4.38-1.93.54l-6.64,2c-.53.16-.51.29,0,.29h50.21Z"
        transform="translate(-95.9 -75.81)" />
    <rect class="cls-7" x="73.73" y="34.06" width="41.82" height="99.22" />
    <rect class="cls-20" x="23.98" y="34.06" width="47.06" height="49.44" rx="0.25" />
    <rect class="cls-20" x="77.41" y="34.06" width="35.24" height="49.26" rx="0.25" />
    <path class="cls-21" d="M117.31,84.25v79a.25.25,0,0,0,.25.25h96.72a.25.25,0,0,0,.25-.25v-79"
        transform="translate(-95.9 -75.81)" />
    <path class="cls-20" d="M102.07,113.05" transform="translate(-95.9 -75.81)" />
    <rect class="cls-8" x="99.54" y="137.51" width="22.29" height="11.07" rx="0.79" />
    <rect class="cls-9" x="99.54" y="137.51" width="22.29" height="11.07" rx="0.79" />
    <rect class="cls-22" x="42.44" y="12.02" width="9.18" height="6.11" />
    <circle class="cls-23" cx="48.96" cy="15.07" r="1.77" />
    <rect class="cls-22" x="185.1" y="87.83" width="9.18" height="6.11"
        transform="translate(283.48 105.96) rotate(-180)" />
    <circle class="cls-23" cx="91.86" cy="15.07" r="1.77" />
</svg>