<?xml version="1.0" encoding="UTF-8" standalone="no"?>
<svg
   xmlns:dc="http://purl.org/dc/elements/1.1/"
   xmlns:cc="http://creativecommons.org/ns#"
   xmlns:rdf="http://www.w3.org/1999/02/22-rdf-syntax-ns#"
   xmlns:svg="http://www.w3.org/2000/svg"
   xmlns="http://www.w3.org/2000/svg"
   xmlns:sodipodi="http://sodipodi.sourceforge.net/DTD/sodipodi-0.dtd"
   xmlns:inkscape="http://www.inkscape.org/namespaces/inkscape"
   version="1.1"
   id="svg2"
   xml:space="preserve"
   width="152.42267"
   height="255.88933"
   viewBox="0 0 152.42267 255.88933"
   sodipodi:docname="Line2.ai"><metadata
     id="metadata8"><rdf:RDF><cc:Work
         rdf:about=""><dc:format>image/svg+xml</dc:format><dc:type
           rdf:resource="http://purl.org/dc/dcmitype/StillImage" /></cc:Work></rdf:RDF></metadata><defs
     id="defs6"><clipPath
       clipPathUnits="userSpaceOnUse"
       id="clipPath20"><path
         d="M 0,191.917 H 114.317 V 0 H 0 Z"
         id="path18" /></clipPath></defs><sodipodi:namedview
     pagecolor="#ffffff"
     bordercolor="#666666"
     borderopacity="1"
     objecttolerance="10"
     gridtolerance="10"
     guidetolerance="10"
     inkscape:pageopacity="0"
     inkscape:pageshadow="2"
     inkscape:window-width="640"
     inkscape:window-height="480"
     id="namedview4" /><g
     id="g10"
     inkscape:groupmode="layer"
     inkscape:label="Line2"
     transform="matrix(1.3333333,0,0,-1.3333333,0,255.88933)"><path
       d="M 0,0 H 114.317 V 191.917 H 0 Z"
       style="fill:#bb183e;fill-opacity:1;fill-rule:nonzero;stroke:none"
       id="path12" /><g
       id="g14"><g
         id="g16"
         clip-path="url(#clipPath20)"><g
           id="g22"
           transform="translate(77.8984,120.812)"><path
             d="m 0,0 c 0,6.316 -1.997,11.281 -5.988,14.895 -3.992,3.612 -9.425,5.419 -16.297,5.419 -4.851,0 -9.753,-1.239 -14.704,-3.714 -4.953,-2.476 -9.577,-6.014 -13.871,-10.612 V 20.39 c 3.839,3.991 8.197,7.049 13.075,9.172 4.876,2.122 10.598,3.183 17.168,3.183 10.612,0 19.151,-2.843 25.62,-8.527 6.467,-5.685 9.702,-13.379 9.702,-23.081 0,-8.641 -1.984,-16.12 -5.95,-22.436 -3.968,-6.318 -10.752,-12.785 -20.352,-19.405 -9.804,-6.772 -16.361,-11.623 -19.67,-14.553 -3.31,-2.931 -5.622,-5.736 -6.935,-8.413 -1.315,-2.679 -1.971,-5.939 -1.971,-9.778 h 58.364 v -13.189 h -73.827 v 5.836 c 0,6.771 0.922,12.519 2.767,17.244 1.844,4.724 4.889,9.324 9.134,13.796 4.244,4.471 10.863,9.84 19.859,16.107 9.196,6.467 15.474,12.139 18.835,17.016 C -1.681,-11.762 0,-6.215 0,0"
             style="fill:#ffffff;fill-opacity:1;fill-rule:nonzero;stroke:none"
             id="path24" /></g></g></g></g></svg>
