<?xml version="1.0" encoding="UTF-8" standalone="no"?>
<svg
   version="1.1"
   id="svg2"
   xml:space="preserve"
   width="255.46001"
   height="255.88933"
   viewBox="0 0 255.46001 255.88933"
   sodipodi:docname="NJM_Line_S3_icon.svg"
   inkscape:version="1.2 (dc2aedaf03, 2022-05-15)"
   xmlns:inkscape="http://www.inkscape.org/namespaces/inkscape"
   xmlns:sodipodi="http://sodipodi.sourceforge.net/DTD/sodipodi-0.dtd"
   xmlns="http://www.w3.org/2000/svg"
   xmlns:svg="http://www.w3.org/2000/svg"
   xmlns:rdf="http://www.w3.org/1999/02/22-rdf-syntax-ns#"
   xmlns:cc="http://creativecommons.org/ns#"
   xmlns:dc="http://purl.org/dc/elements/1.1/"><metadata
     id="metadata8"><rdf:RDF><cc:Work
         rdf:about=""><dc:format>image/svg+xml</dc:format><dc:type
           rdf:resource="http://purl.org/dc/dcmitype/StillImage" /></cc:Work></rdf:RDF></metadata><defs
     id="defs6"><clipPath
       clipPathUnits="userSpaceOnUse"
       id="clipPath20"><path
         d="M 0,191.917 H 191.595 V 0 H 0 Z"
         id="path18" /></clipPath></defs><sodipodi:namedview
     pagecolor="#ffffff"
     bordercolor="#666666"
     borderopacity="1"
     objecttolerance="10"
     gridtolerance="10"
     guidetolerance="10"
     inkscape:pageopacity="0"
     inkscape:pageshadow="2"
     inkscape:window-width="1920"
     inkscape:window-height="991"
     id="namedview4"
     inkscape:showpageshadow="2"
     inkscape:pagecheckerboard="0"
     inkscape:deskcolor="#d1d1d1"
     showgrid="false"
     inkscape:zoom="3.2670374"
     inkscape:cx="127.79162"
     inkscape:cy="128.09771"
     inkscape:window-x="-9"
     inkscape:window-y="-9"
     inkscape:window-maximized="1"
     inkscape:current-layer="g10" /><g
     id="g10"
     inkscape:groupmode="layer"
     inkscape:label="LineS3"
     transform="matrix(1.3333333,0,0,-1.3333333,0,255.88933)"><path
       d="M 0,0 H 191.595 V 191.917 H 0 Z"
       style="fill:#b480a6;fill-opacity:1;fill-rule:nonzero;stroke:none"
       id="path12" /><g
       id="g14"
       transform="translate(-6.4498995,2.6996514)"><g
         id="g16"
         clip-path="url(#clipPath20)"><g
           id="g22"
           transform="translate(26.7314,57.3271)"><path
             d="m 0,0 c 3.587,-3.134 8.388,-5.711 14.402,-7.731 6.013,-2.022 11.723,-3.032 17.13,-3.032 16.473,0 24.71,5.861 24.71,17.585 0,3.284 -0.885,6.241 -2.653,8.868 -1.769,2.627 -4.194,4.952 -7.276,6.974 -3.083,2.02 -8.869,5.128 -17.358,9.323 C 17.18,37.848 9.424,43.292 5.685,48.321 1.945,53.349 0.076,59.097 0.076,65.565 c 0,9.752 3.915,17.484 11.749,23.195 7.832,5.71 17.71,8.565 29.636,8.565 11.673,0 20.239,-1.415 25.696,-4.245 V 76.556 c -7.075,4.901 -16.019,7.353 -26.832,7.353 -7.177,0 -13.026,-1.504 -17.548,-4.51 -4.523,-3.007 -6.783,-7.19 -6.783,-12.545 0,-4.75 1.565,-8.616 4.699,-11.597 3.133,-2.982 9.93,-7.049 20.39,-12.203 11.521,-5.509 19.581,-11.017 24.179,-16.525 4.598,-5.508 6.898,-11.698 6.898,-18.57 0,-10.309 -3.74,-18.218 -11.218,-23.725 -7.48,-5.508 -17.864,-8.262 -31.153,-8.262 -4.65,0 -10.07,0.644 -16.259,1.933 -6.191,1.288 -10.7,2.892 -13.53,4.813 z"
             style="fill:#ffffff;fill-opacity:1;fill-rule:nonzero;stroke:none"
             id="path24" /></g><g
           id="g26"
           transform="translate(109.7002,54.9018)"><path
             d="m 0,0 c 8.034,-6.215 17.104,-9.323 27.211,-9.323 8.085,0 14.49,1.982 19.215,5.95 4.724,3.966 7.087,9.285 7.087,15.956 0,14.856 -10.638,22.284 -31.911,22.284 h -9.778 v 12.279 h 9.323 c 18.848,0 28.273,6.974 28.273,20.92 0,12.886 -7.201,19.329 -21.602,19.329 -8.237,0 -15.994,-2.779 -23.27,-8.338 V 93.08 c 7.68,4.446 16.649,6.67 26.908,6.67 10.005,0 18.04,-2.615 24.104,-7.845 6.064,-5.23 9.096,-12.014 9.096,-20.352 0,-15.362 -7.834,-25.24 -23.498,-29.637 v -0.303 c 8.489,-0.909 15.197,-3.904 20.125,-8.982 4.926,-5.078 7.39,-11.408 7.39,-18.987 0,-10.562 -3.803,-19.077 -11.408,-25.544 -7.606,-6.469 -17.724,-9.703 -30.357,-9.703 -11.117,0 -20.086,2.072 -26.908,6.216 z"
             style="fill:#ffffff;fill-opacity:1;fill-rule:nonzero;stroke:none"
             id="path28" /></g></g></g></g></svg>
