<svg id="图层_5" data-name="图层 5" xmlns="http://www.w3.org/2000/svg" viewBox="0 0 148.88 169.74">
    <defs>
        <style>
            .cls-1,
            .cls-18 {
                fill: #c8c9c9;
            }

            .cls-1,
            .cls-19 {
                stroke: #c8c9c9;
            }

            .cls-1,
            .cls-10,
            .cls-12,
            .cls-13,
            .cls-15,
            .cls-16,
            .cls-19,
            .cls-20,
            .cls-4,
            .cls-5,
            .cls-7,
            .cls-8 {
                stroke-miterlimit: 10;
            }

            .cls-1,
            .cls-19,
            .cls-5 {
                stroke-width: 0.5px;
            }

            .cls-2 {
                fill: #7ec92b;
            }

            .cls-15,
            .cls-3 {
                fill: #3d3a39;
            }

            .cls-10,
            .cls-12,
            .cls-19,
            .cls-20,
            .cls-4,
            .cls-5,
            .cls-7,
            .cls-8 {
                fill: none;
            }

            .cls-15,
            .cls-20,
            .cls-4 {
                stroke: #3d3a39;
            }

            .cls-4,
            .cls-7 {
                stroke-width: 0.75px;
            }

            .cls-5,
            .cls-7,
            .cls-8 {
                stroke: #221714;
            }

            .cls-6 {
                fill: #9e9f9f;
            }

            .cls-16,
            .cls-9 {
                fill: #727171;
            }

            .cls-10,
            .cls-16 {
                stroke: #727171;
            }

            .cls-10 {
                stroke-width: 1.15px;
            }

            .cls-11 {
                fill: #f6f7f7;
            }

            .cls-12 {
                stroke: #888;
                stroke-width: 1.25px;
            }

            .cls-13 {
                fill: #dbdcdc;
                stroke: #dbdcdc;
                stroke-width: 1.41px;
            }

            .cls-14 {
                fill: #bf1626;
            }

            .cls-16 {
                stroke-width: 0.69px;
            }

            .cls-17 {
                fill: #595757;
            }

            .cls-21 {
                fill: #f6efd8;
            }
        </style>
    </defs>
    <title>萝3车头</title>
    <polygon class="cls-1"
        points="77.82 137.46 107.01 137.46 107.01 169.14 138.17 169.14 140.68 165.22 143.34 159.95 145.02 153.23 145.43 148.93 148.2 107.14 148.43 99.57 148.01 92.69 140.91 24.2 139.34 19.89 138.26 18.04 134.72 14.33 131.19 12.19 120.75 8.11 109.54 4.65 94.28 1.74 89.2 1.21 84.78 0.84 77.82 0.48 71.17 0.48 64.21 0.84 59.79 1.21 54.72 1.74 39.45 4.65 28.24 8.11 17.8 12.19 14.27 14.33 10.72 18.04 9.64 19.89 8.08 24.2 0.98 92.69 0.56 99.57 0.79 107.14 3.56 148.93 3.97 153.23 5.66 159.95 8.31 165.22 10.82 169.14 41.98 169.14 41.98 137.46 71.17 137.46 77.82 137.46" />
    <path class="cls-2"
        d="M247.3,287.65c.08,0,1-.08,2.14-.2l2.4-.27c1.1-.12,2.87-.4,3.95-.63l7.64-1.64a22.59,22.59,0,0,0,3.78-1.24l5.94-2.68c1-.45,2.6-1.27,3.55-1.83l6.78-4a29.42,29.42,0,0,0,3.27-2.28l5.22-4.31a34.14,34.14,0,0,0,2.89-2.75l2.7-2.95c.74-.81,1.88-2.21,2.52-3.1l3.63-5c.64-.9,1.6-2.42,2.13-3.38l2.14-3.9a24.48,24.48,0,0,0,1.57-3.65l.94-2.93a27.25,27.25,0,0,0,.89-3.88l.21-1.56a3.91,3.91,0,0,0-.65-2.9,4.77,4.77,0,0,0-2.92-.93h-4.31a2.09,2.09,0,0,1-2.08-2L299,163.46a10.79,10.79,0,0,0-.34-2.62,2.11,2.11,0,0,0-1.16-.93c-.49-.17-.88.59-.87,1.69l1,71.6a1.92,1.92,0,0,0,2,1.9l3-.14a6.22,6.22,0,0,1,3.56,1.15l.87.7a2.77,2.77,0,0,1,.76,3.09l-1.09,2.53a31.25,31.25,0,0,1-1.86,3.53l-1.77,2.85a35.54,35.54,0,0,1-2.3,3.16c-.68.8-1.85,2.12-2.61,2.92l-.61.66c-.75.8-2.05,2-2.89,2.75l-3.05,2.57c-.84.71-2.27,1.8-3.17,2.43l-2.11,1.45c-.91.62-2.43,1.58-3.38,2.13l-2,1.17a36,36,0,0,1-3.58,1.76l-5.53,2.25a27.05,27.05,0,0,1-3.81,1.18l-8.89,1.93c-1.07.23-2.85.5-3.94.6l-4.06.35c-1.09.1-2.71.18-3.59.18h-1.7l-2.08-.18-4.06-.35c-1.09-.1-2.87-.37-3.94-.6l-8.89-1.93a26.52,26.52,0,0,1-3.8-1.18l-5.54-2.25a36,36,0,0,1-3.58-1.76l-2-1.17c-1-.55-2.47-1.51-3.38-2.13l-2.1-1.45c-.91-.63-2.34-1.72-3.18-2.43l-3.05-2.57c-.84-.71-2.14-1.95-2.89-2.75l-.61-.66c-.75-.8-1.93-2.12-2.61-2.92a33.56,33.56,0,0,1-2.29-3.16L190,246a31.25,31.25,0,0,1-1.86-3.53l-1.09-2.53a2.79,2.79,0,0,1,.76-3.09l.88-.7a6.16,6.16,0,0,1,3.55-1.15l3,.14a1.91,1.91,0,0,0,2-1.9l1-71.6c0-1.1-.38-1.86-.87-1.69a2.19,2.19,0,0,0-1.16.93,11.33,11.33,0,0,0-.34,2.62l-2.62,66.21a2.09,2.09,0,0,1-2.08,2h-4.31a4.77,4.77,0,0,0-2.92.93,3.91,3.91,0,0,0-.65,2.9l.22,1.56a27.21,27.21,0,0,0,.88,3.88l.94,2.93a24.48,24.48,0,0,0,1.57,3.65l2.14,3.9c.53,1,1.49,2.48,2.13,3.38l3.63,5c.64.89,1.78,2.29,2.52,3.1l2.7,2.95a34.14,34.14,0,0,0,2.89,2.75l5.22,4.31a29.42,29.42,0,0,0,3.27,2.28l6.78,4c.95.56,2.55,1.38,3.55,1.83l5.94,2.68a22.59,22.59,0,0,0,3.78,1.24l7.64,1.64c1.08.23,2.85.51,3.95.63l2.09.23Z"
        transform="translate(-172.97 -150.5)" />
    <path class="cls-2"
        d="M320,275.45h-7a3.32,3.32,0,0,1-2.39-.7,5.13,5.13,0,0,1-.5-1.58,7.94,7.94,0,0,1,.13-2.06,7.14,7.14,0,0,1,.81-2.05c.3-.47.85-1.4,1.21-2.05s1-2,1.45-3l.16-.35a26.27,26.27,0,0,0,1.25-3.79l.38-1.64a18.05,18.05,0,0,0,.37-3.95l-.08-1.93c0-1.1-.18-2.9-.31-4l-1.56-13.26c-.13-1.09-.32-2.88-.43-4l-4.25-43.48c-.11-1.09-.26-2.88-.33-4l-.4-6a3.48,3.48,0,0,1,1.45-3,13.54,13.54,0,0,1,2.47-1.21c.49-.14,1.05.63,1.24,1.71l.55,3.11c.19,1.09.43,2.87.54,4l6.69,66.5"
        transform="translate(-172.97 -150.5)" />
    <path class="cls-3"
        d="M321.05,244.73H317.9a1.36,1.36,0,0,1-1.25-1l-.1-.41a18.33,18.33,0,0,1-.38-2L316,240c-.08-.54-.18-1.43-.23-2l-.22-2.42c0-.55-.14-1.45-.18-2l-3.53-39.65c-.05-.54-.1-1.44-.12-2l-.12-4.26a8.21,8.21,0,0,1,.22-2l.41-1.55a2,2,0,0,1,1.21-1.26l1.37-.42"
        transform="translate(-172.97 -150.5)" />
    <path class="cls-4"
        d="M321.05,244.73H317.9a1.36,1.36,0,0,1-1.25-1l-.1-.41a18.33,18.33,0,0,1-.38-2L316,240c-.08-.54-.18-1.43-.23-2l-.22-2.42c0-.55-.14-1.45-.18-2l-3.53-39.65c-.05-.54-.1-1.44-.12-2l-.12-4.26a8.21,8.21,0,0,1,.22-2l.41-1.55a2,2,0,0,1,1.21-1.26l1.37-.42"
        transform="translate(-172.97 -150.5)" />
    <path class="cls-2"
        d="M174.94,275.45h7a3.32,3.32,0,0,0,2.39-.7,5.13,5.13,0,0,0,.5-1.58,7.94,7.94,0,0,0-.13-2.06,7.43,7.43,0,0,0-.8-2.05c-.31-.47-.85-1.4-1.22-2.05s-1-2-1.45-3l-.16-.35a26.23,26.23,0,0,1-1.24-3.79l-.39-1.64a18.69,18.69,0,0,1-.37-3.95l.08-1.93c0-1.1.19-2.9.31-4L181,235.06c.13-1.09.32-2.88.43-4l4.25-43.48c.11-1.09.26-2.88.33-4l.4-6a3.48,3.48,0,0,0-1.45-3,13.23,13.23,0,0,0-2.47-1.21c-.49-.14-1.05.63-1.24,1.71l-.54,3.11c-.19,1.09-.44,2.87-.55,4l-6.69,66.5"
        transform="translate(-172.97 -150.5)" />
    <path class="cls-5"
        d="M185.61,236.43l2.5,6a28.89,28.89,0,0,0,1.83,3.54l1.62,2.55a35.45,35.45,0,0,0,2.36,3.22l.14.17c.71.84,1.91,2.19,2.66,3l.61.66c.75.8,2,2,2.88,2.76l2.21,1.91c.83.72,2.24,1.84,3.13,2.49l1,.76c.89.65,2.38,1.65,3.32,2.24l1.64,1c.93.58,2.49,1.48,3.47,2l.93.48c1,.52,2.61,1.27,3.63,1.68l1.49.61c1,.41,2.71,1,3.77,1.31l1.79.53c1.05.31,2.8.75,3.87,1l2.23.47c1.08.23,2.85.53,3.94.68l1.55.21c1.09.15,2.88.34,4,.42l.55,0c1.1.09,2.4.16,2.9.18l1.76,0,1.75,0c.5,0,1.8-.09,2.9-.18l.55,0c1.1-.08,2.89-.27,4-.42l1.54-.21c1.09-.15,2.86-.45,3.94-.68l2.23-.47c1.07-.23,2.82-.67,3.87-1l1.79-.53c1.06-.31,2.76-.9,3.77-1.31l1.49-.61c1-.41,2.66-1.16,3.63-1.68l.93-.48c1-.51,2.54-1.41,3.47-2l1.64-1c.94-.59,2.43-1.59,3.32-2.24l1.05-.76c.89-.65,2.3-1.77,3.13-2.49l2.21-1.91c.83-.72,2.13-2,2.88-2.76l.61-.66c.76-.8,2-2.15,2.66-3l.14-.17a35.45,35.45,0,0,0,2.36-3.22l1.62-2.55a27.56,27.56,0,0,0,1.83-3.54l2.5-6"
        transform="translate(-172.97 -150.5)" />
    <path class="cls-3"
        d="M250.59,151.08c1.1,0,2.89.1,4,.15l1.15.06c1.1.05,2.9.19,4,.3l2.07.21c1.09.12,2.88.33,4,.48l2.34.31c1.09.15,2.87.45,3.95.66l4.19.82c1.08.21,2.84.58,3.92.82l1.87.41c1.08.24,2.82.67,3.88,1l.54.15c1.06.3,2.79.8,3.84,1.12l.21.07c1.05.32,2.75.9,3.78,1.28l2.05.76a3.08,3.08,0,0,1,1.87,2.69v66.12a13.94,13.94,0,0,0,.23,2.8,4.5,4.5,0,0,0,.87,1.54,4.45,4.45,0,0,0,1.35,1,7.5,7.5,0,0,0,2.21.24h3.56a5.55,5.55,0,0,1,2.28.3,2.21,2.21,0,0,1,.43.71,2.71,2.71,0,0,1,.1.91,2.45,2.45,0,0,1-.33.95c-.16.26-.7,1-1.21,1.64s-1.5,1.81-2.21,2.59l-2.64,2.9-.78.87c-.74.81-1.95,2-2.69,2.68s-1.84,1.62-2.46,2.14-1.65,1.38-2.31,1.92-1.86,1.44-2.66,2-2.22,1.54-3.15,2.13l-.43.28c-.93.59-2.39,1.44-3.24,1.88l-3.34,1.7-.43.22c-1,.49-2.61,1.25-3.62,1.69l-.46.2c-1,.44-2.68,1.1-3.71,1.48l-.46.17c-1,.37-2.74.94-3.8,1.26l-.25.08c-1.05.31-2.75.8-3.77,1.08s-2.49.6-3.27.73-2.31.36-3.4.52l-.44.07c-1.09.16-2.7.36-3.58.44s-2.43.21-3.44.29-2.31.13-2.89.14h-1.91c-.46,0-1.67-.07-2.68-.14s-2.56-.2-3.44-.29-2.48-.28-3.57-.44l-.45-.07-3.4-.52c-.78-.13-2.25-.46-3.27-.73s-2.71-.77-3.76-1.08l-.26-.08c-1.05-.32-2.76-.89-3.79-1.26l-.46-.17c-1-.38-2.71-1-3.72-1.48l-.45-.2c-1-.44-2.64-1.2-3.62-1.69l-.43-.22c-1-.49-2.49-1.26-3.34-1.7s-2.32-1.29-3.24-1.88l-.44-.28c-.93-.59-2.34-1.55-3.14-2.13s-2-1.5-2.66-2-1.71-1.4-2.32-1.92-1.72-1.48-2.46-2.14-1.94-1.87-2.68-2.68L192,244c-.74-.81-1.92-2.12-2.64-2.9s-1.7-2-2.21-2.59-1-1.38-1.21-1.64a2.45,2.45,0,0,1-.33-.95,2.71,2.71,0,0,1,.11-.91,2.19,2.19,0,0,1,.42-.71,5.59,5.59,0,0,1,2.28-.3H192a7.38,7.38,0,0,0,2.2-.24,4.33,4.33,0,0,0,1.35-1,4.54,4.54,0,0,0,.88-1.54,14.92,14.92,0,0,0,.22-2.8V162.33a3.09,3.09,0,0,1,1.88-2.69l2-.76c1-.38,2.74-1,3.79-1.28l.2-.07c1.05-.32,2.78-.82,3.84-1.12l.54-.15c1.06-.29,2.81-.72,3.88-1l1.88-.41c1.07-.24,2.83-.61,3.91-.82l4.2-.82c1.07-.21,2.85-.51,3.94-.66l2.35-.31c1.09-.15,2.87-.36,4-.48l2.06-.21c1.1-.11,2.89-.25,4-.3l1.15-.06,4-.18h.09c1.1,0,2.9,0,4,0Z"
        transform="translate(-172.97 -150.5)" />
    <path class="cls-4"
        d="M250.59,151.08c1.1,0,2.89.1,4,.15l1.15.06c1.1.05,2.9.19,4,.3l2.07.21c1.09.12,2.88.33,4,.48l2.34.31c1.09.15,2.87.45,3.95.66l4.19.82c1.08.21,2.84.58,3.92.82l1.87.41c1.08.24,2.82.67,3.88,1l.54.15c1.06.3,2.79.8,3.84,1.12l.21.07c1.05.32,2.75.9,3.78,1.28l2.05.76a3.08,3.08,0,0,1,1.87,2.69v66.12a13.94,13.94,0,0,0,.23,2.8,4.5,4.5,0,0,0,.87,1.54,4.45,4.45,0,0,0,1.35,1,7.5,7.5,0,0,0,2.21.24h3.56a5.55,5.55,0,0,1,2.28.3,2.21,2.21,0,0,1,.43.71,2.71,2.71,0,0,1,.1.91,2.45,2.45,0,0,1-.33.95c-.16.26-.7,1-1.21,1.64s-1.5,1.81-2.21,2.59l-2.64,2.9-.78.87c-.74.81-1.95,2-2.69,2.68s-1.84,1.62-2.46,2.14-1.65,1.38-2.31,1.92-1.86,1.44-2.66,2-2.22,1.54-3.15,2.13l-.43.28c-.93.59-2.39,1.44-3.24,1.88l-3.34,1.7-.43.22c-1,.49-2.61,1.25-3.62,1.69l-.46.2c-1,.44-2.68,1.1-3.71,1.48l-.46.17c-1,.37-2.74.94-3.8,1.26l-.25.08c-1.05.31-2.75.8-3.77,1.08s-2.49.6-3.27.73-2.31.36-3.4.52l-.44.07c-1.09.16-2.7.36-3.58.44s-2.43.21-3.44.29-2.31.13-2.89.14h-1.91c-.46,0-1.67-.07-2.68-.14s-2.56-.2-3.44-.29-2.48-.28-3.57-.44l-.45-.07-3.4-.52c-.78-.13-2.25-.46-3.27-.73s-2.71-.77-3.76-1.08l-.26-.08c-1.05-.32-2.76-.89-3.79-1.26l-.46-.17c-1-.38-2.71-1-3.72-1.48l-.45-.2c-1-.44-2.64-1.2-3.62-1.69l-.43-.22c-1-.49-2.49-1.26-3.34-1.7s-2.32-1.29-3.24-1.88l-.44-.28c-.93-.59-2.34-1.55-3.14-2.13s-2-1.5-2.66-2-1.71-1.4-2.32-1.92-1.72-1.48-2.46-2.14-1.94-1.87-2.68-2.68L192,244c-.74-.81-1.92-2.12-2.64-2.9s-1.7-2-2.21-2.59-1-1.38-1.21-1.64a2.45,2.45,0,0,1-.33-.95,2.71,2.71,0,0,1,.11-.91,2.19,2.19,0,0,1,.42-.71,5.59,5.59,0,0,1,2.28-.3H192a7.38,7.38,0,0,0,2.2-.24,4.33,4.33,0,0,0,1.35-1,4.54,4.54,0,0,0,.88-1.54,14.92,14.92,0,0,0,.22-2.8V162.33a3.09,3.09,0,0,1,1.88-2.69l2-.76c1-.38,2.74-1,3.79-1.28l.2-.07c1.05-.32,2.78-.82,3.84-1.12l.54-.15c1.06-.29,2.81-.72,3.88-1l1.88-.41c1.07-.24,2.83-.61,3.91-.82l4.2-.82c1.07-.21,2.85-.51,3.94-.66l2.35-.31c1.09-.15,2.87-.36,4-.48l2.06-.21c1.1-.11,2.89-.25,4-.3l1.15-.06,4-.18h.09c1.1,0,2.9,0,4,0Z"
        transform="translate(-172.97 -150.5)" />
    <path class="cls-6" d="M315.8,192.79h-1.09c-.6,0-1,.9-.92,2l4,44.92c.1,1.09.83,2,1.63,2l1.46,0"
        transform="translate(-172.97 -150.5)" />
    <path class="cls-7" d="M315.8,192.79h-1.09c-.6,0-1,.9-.92,2l4,44.92c.1,1.09.83,2,1.63,2l1.46,0"
        transform="translate(-172.97 -150.5)" />
    <path class="cls-3"
        d="M173.87,244.73H177a1.36,1.36,0,0,0,1.25-1l.1-.41c.14-.53.31-1.41.39-2l.19-1.41c.07-.54.17-1.43.22-2l.23-2.42c.05-.55.13-1.45.18-2l3.52-39.65c0-.54.1-1.44.12-2l.13-4.26a8.76,8.76,0,0,0-.23-2l-.41-1.55a2,2,0,0,0-1.21-1.26l-1.37-.42"
        transform="translate(-172.97 -150.5)" />
    <path class="cls-4"
        d="M173.87,244.73H177a1.36,1.36,0,0,0,1.25-1l.1-.41c.14-.53.31-1.41.39-2l.19-1.41c.07-.54.17-1.43.22-2l.23-2.42c.05-.55.13-1.45.18-2l3.52-39.65c0-.54.1-1.44.12-2l.13-4.26a8.76,8.76,0,0,0-.23-2l-.41-1.55a2,2,0,0,0-1.21-1.26l-1.37-.42"
        transform="translate(-172.97 -150.5)" />
    <path class="cls-6" d="M179,192.79h1.09c.6,0,1,.9.92,2l-4,44.92c-.1,1.09-.84,2-1.64,2l-1.45,0"
        transform="translate(-172.97 -150.5)" />
    <path class="cls-7" d="M179,192.79h1.09c.6,0,1,.9.92,2l-4,44.92c-.1,1.09-.84,2-1.64,2l-1.45,0"
        transform="translate(-172.97 -150.5)" />
    <path class="cls-8"
        d="M257.3,151.36c1.1.06,2.89.2,4,.31l4.37.45c1.09.11,2.88.36,4,.55l4.2.72c1.08.19,2.84.55,3.91.8l3.75.88c1.07.26,2.82.7,3.87,1l2.66.74c1.06.3,2.77.83,3.82,1.19l4.47,1.53c1,.35,2.73,1,3.75,1.39l1.86.74a36.87,36.87,0,0,1,3.38,1.59,18.34,18.34,0,0,1,3,2.22l.21.19a24.15,24.15,0,0,1,2.42,2.69,24.68,24.68,0,0,1,1.73,2.86,15.44,15.44,0,0,1,1.11,3.5l.08.43c.19,1.08.44,2.87.55,4l6.81,67.68c.11,1.09.19,2.89.18,4v.87c0,1.1-.08,2.9-.15,4l-2,29.45-.16,2.4a.53.53,0,0,1-.56.41H176.23a.47.47,0,0,1-.48-.43l-.16-2.42-2-29.41c-.08-1.1-.14-2.9-.15-4v-.87c0-1.1.07-2.9.18-4l6.81-67.68c.11-1.09.36-2.88.55-4l.07-.43a16,16,0,0,1,1.12-3.5,24.68,24.68,0,0,1,1.73-2.86,24.15,24.15,0,0,1,2.42-2.69l.2-.19a18.85,18.85,0,0,1,3-2.22,36.64,36.64,0,0,1,3.37-1.59l1.87-.74c1-.41,2.7-1,3.75-1.39L203,158c1-.36,2.76-.89,3.82-1.19l2.65-.74c1.06-.3,2.81-.74,3.88-1l3.74-.88c1.08-.25,2.84-.61,3.92-.8l4.2-.72c1.08-.19,2.86-.44,4-.55l4.36-.45c1.1-.11,2.89-.25,4-.3l5.87-.29c1.1-.06,2.9-.09,4-.08l2.41,0c1.1,0,2.89.08,4,.14Z"
        transform="translate(-172.97 -150.5)" />
    <path class="cls-8"
        d="M175.67,286.38l.75,11.48c.07,1.1.22,2.87.32,3.93s.35,2.66.54,3.53.59,2.46.89,3.52l0,.07a22.94,22.94,0,0,0,1.41,3.61c.48.93,1.12,2.15,1.42,2.71s.94,1.61,1.43,2.34l1.19,1.74a1,1,0,0,0,.63.43h30.47c.14,0,.26-.2.26-.44V287.9"
        transform="translate(-172.97 -150.5)" />
    <rect class="cls-9" x="17.07" y="139.47" width="20.58" height="9.86" rx="1.15" />
    <rect class="cls-10" x="17.07" y="139.47" width="20.58" height="9.86" rx="1.15" />
    <path class="cls-5"
        d="M177.71,303.26a.08.08,0,0,1,.08-.1h1.29a.13.13,0,0,1,.12.1l.64,3c0,.06,0,.14,0,.2l.72,2.75a.07.07,0,0,1-.08.09h-1.25a.13.13,0,0,1-.13-.09l-.6-2.1a1.33,1.33,0,0,0-.05-.19l-.3-1.38,0-.19Z"
        transform="translate(-172.97 -150.5)" />
    <path class="cls-5"
        d="M179.94,311.29c0-.05,0-.09.06-.09h1.24a.16.16,0,0,1,.14.09l1.47,3.09.1.18.88,1.51.1.17.72,1.15s0,.08-.05.08h-1.23a.23.23,0,0,1-.16-.08l-.3-.46-.11-.16-.64-1.07-.1-.17-.57-.95-.1-.18-.84-1.75-.08-.18Z"
        transform="translate(-172.97 -150.5)" />
    <path class="cls-8"
        d="M319.13,286.38l-.74,11.48c-.08,1.1-.22,2.87-.33,3.93a35.63,35.63,0,0,1-.54,3.53c-.19.88-.59,2.46-.88,3.52l0,.07a23,23,0,0,1-1.42,3.61c-.48.93-1.11,2.15-1.41,2.71s-.94,1.61-1.43,2.34-1,1.51-1.19,1.74a1,1,0,0,1-.64.43H280.07c-.15,0-.27-.2-.27-.44V287.9"
        transform="translate(-172.97 -150.5)" />
    <path class="cls-5"
        d="M317.1,303.26a.08.08,0,0,0-.08-.1h-1.29a.12.12,0,0,0-.12.1l-.65,3,0,.2-.72,2.75a.07.07,0,0,0,.08.09h1.25a.14.14,0,0,0,.13-.09l.59-2.1a1.33,1.33,0,0,0,.05-.19l.31-1.38,0-.19Z"
        transform="translate(-172.97 -150.5)" />
    <path class="cls-5"
        d="M314.87,311.29a.06.06,0,0,0-.06-.09h-1.25a.17.17,0,0,0-.14.09L312,314.38a1.51,1.51,0,0,1-.09.18l-.88,1.51s-.07.12-.1.17l-.72,1.15s0,.08,0,.08h1.23a.27.27,0,0,0,.16-.08l.3-.46.11-.16.63-1.07.1-.17.58-.95a1.51,1.51,0,0,0,.09-.18l.85-1.75.08-.18Z"
        transform="translate(-172.97 -150.5)" />
    <rect class="cls-6" x="31.55" y="38.15" width="39.75" height="41.8" rx="0.1" />
    <rect class="cls-8" x="31.55" y="38.15" width="39.75" height="41.8" rx="0.1" />
    <rect class="cls-6" x="85.14" y="38.14" width="30.12" height="41.8" rx="0.1" />
    <rect class="cls-8" x="85.14" y="38.14" width="30.12" height="41.8" rx="0.1" />
    <rect class="cls-7" x="29.21" y="33.04" width="44.32" height="49.04" rx="0.1" />
    <polygon class="cls-8" points="77.21 135.88 123.06 135.88 123.06 32.93 77.24 32.93 77.21 135.88" />
    <path class="cls-7" d="M255.14,183.27v49.22a.11.11,0,0,0,.1.1h36a.1.1,0,0,0,.1-.1V183.43"
        transform="translate(-172.97 -150.5)" />
    <path class="cls-11"
        d="M196.9,236.05c-.82-.05-2.39-.1-3.49-.1l-4.09,0c-1.1,0-1.4.67-.67,1.49l5.43,6.09a20,20,0,0,0,2.4,2.31,29.08,29.08,0,0,0,2.73,1.77c.91.53,2.34,1.26,3.18,1.64a30,30,0,0,0,3.45,1.23l.86.25a19.82,19.82,0,0,0,3.43.65,19.62,19.62,0,0,0,3-.07,21.19,21.19,0,0,0,2.68-.53,10.16,10.16,0,0,0,1.85-.73,2.42,2.42,0,0,0,.88-1.13,3.62,3.62,0,0,0-.15-1.91,17.46,17.46,0,0,0-1-2.21,16.37,16.37,0,0,0-1.27-1.92,14.3,14.3,0,0,0-1.7-1.69c-.54-.45-1.42-1.16-1.94-1.56a7.91,7.91,0,0,0-1.56-1,24.6,24.6,0,0,0-2.59-.62l-5.56-1.07c-1.08-.21-2.51-.48-3.17-.59S197.71,236.1,196.9,236.05Z"
        transform="translate(-172.97 -150.5)" />
    <path class="cls-12"
        d="M196.9,236.05c-.82-.05-2.39-.1-3.49-.1l-4.09,0c-1.1,0-1.4.67-.67,1.49l5.43,6.09a20,20,0,0,0,2.4,2.31,29.08,29.08,0,0,0,2.73,1.77c.91.53,2.34,1.26,3.18,1.64a30,30,0,0,0,3.45,1.23l.86.25a19.82,19.82,0,0,0,3.43.65,19.62,19.62,0,0,0,3-.07,21.19,21.19,0,0,0,2.68-.53,10.16,10.16,0,0,0,1.85-.73,2.42,2.42,0,0,0,.88-1.13,3.62,3.62,0,0,0-.15-1.91,17.46,17.46,0,0,0-1-2.21,16.37,16.37,0,0,0-1.27-1.92,14.3,14.3,0,0,0-1.7-1.69c-.54-.45-1.42-1.16-1.94-1.56a7.91,7.91,0,0,0-1.56-1,24.6,24.6,0,0,0-2.59-.62l-5.56-1.07c-1.08-.21-2.51-.48-3.17-.59S197.71,236.1,196.9,236.05Z"
        transform="translate(-172.97 -150.5)" />
    <circle class="cls-13" cx="36.15" cy="94.36" r="4.52" />
    <circle class="cls-14" cx="20.71" cy="88.21" r="2.05" />
    <path class="cls-11"
        d="M297.82,236.05c.81-.05,2.38-.1,3.48-.1l4.09,0c1.1,0,1.41.67.67,1.49l-5.43,6.09a20,20,0,0,1-2.4,2.31,27.82,27.82,0,0,1-2.73,1.77c-.91.53-2.34,1.26-3.18,1.64a30,30,0,0,1-3.45,1.23l-.85.25a20,20,0,0,1-3.43.65,19.72,19.72,0,0,1-3-.07,21.55,21.55,0,0,1-2.68-.53,9.74,9.74,0,0,1-1.84-.73,2.44,2.44,0,0,1-.89-1.13,3.62,3.62,0,0,1,.15-1.91,17.46,17.46,0,0,1,1-2.21,15.26,15.26,0,0,1,1.28-1.92,14.19,14.19,0,0,1,1.69-1.69c.55-.45,1.42-1.16,1.94-1.56a7.94,7.94,0,0,1,1.57-1,23.62,23.62,0,0,1,2.58-.62l5.56-1.07c1.08-.21,2.51-.48,3.17-.59S297,236.1,297.82,236.05Z"
        transform="translate(-172.97 -150.5)" />
    <path class="cls-12"
        d="M297.82,236.05c.81-.05,2.38-.1,3.48-.1l4.09,0c1.1,0,1.41.67.67,1.49l-5.43,6.09a20,20,0,0,1-2.4,2.31,27.82,27.82,0,0,1-2.73,1.77c-.91.53-2.34,1.26-3.18,1.64a30,30,0,0,1-3.45,1.23l-.85.25a20,20,0,0,1-3.43.65,19.72,19.72,0,0,1-3-.07,21.55,21.55,0,0,1-2.68-.53,9.74,9.74,0,0,1-1.84-.73,2.44,2.44,0,0,1-.89-1.13,3.62,3.62,0,0,1,.15-1.91,17.46,17.46,0,0,1,1-2.21,15.26,15.26,0,0,1,1.28-1.92,14.19,14.19,0,0,1,1.69-1.69c.55-.45,1.42-1.16,1.94-1.56a7.94,7.94,0,0,1,1.57-1,23.62,23.62,0,0,1,2.58-.62l5.56-1.07c1.08-.21,2.51-.48,3.17-.59S297,236.1,297.82,236.05Z"
        transform="translate(-172.97 -150.5)" />
    <circle class="cls-13" cx="112.63" cy="94.36" r="4.52" />
    <circle class="cls-14" cx="128.07" cy="88.21" r="2.05" />
    <path class="cls-15" d="M186,237.07" transform="translate(-172.97 -150.5)" />
    <polygon class="cls-16" points="39.86 16.86 39.86 23.34 108.97 23.34 108.97 16.84 39.86 16.86" />
    <rect class="cls-17" x="57.94" y="17.77" width="32.94" height="4.65" />
    <rect class="cls-5" x="37.6" y="14.54" width="73.62" height="10.71" />
    <path class="cls-7"
        d="M179.32,287.9l-2-29.44-.11-2-.07-1.41c0-.55-.06-1.45-.09-2l0-.66c0-.55,0-1.44,0-2l.06-.93c0-.55.11-1.44.16-2l.79-8.53c.05-.55.13-1.45.17-2l3.47-40.8c.05-.55.13-1.45.18-2l.57-6a.89.89,0,0,0-.9-1h-1.78"
        transform="translate(-172.97 -150.5)" />
    <path class="cls-7"
        d="M315.51,287.9l2-29.44c0-.55.09-1.45.12-2l.06-1.41c0-.55.07-1.45.1-2l0-.66c0-.54,0-1.44,0-2l-.06-.93c0-.55-.11-1.44-.16-2l-.79-8.53c0-.55-.13-1.45-.18-2l-3.46-40.81c-.05-.55-.13-1.45-.18-2l-.58-6a.9.9,0,0,1,.91-1h1.89"
        transform="translate(-172.97 -150.5)" />
    <path class="cls-18"
        d="M246.57,244.66c-.55,0-2.61-.09-4.6-.2s-4.89-.36-6.46-.56a56.92,56.92,0,0,1-6-1.17c-1.75-.45-4.22-1.17-5.49-1.59s-3.51-1.18-5-1.67-3.74-1.21-5.08-1.58-4.32-1.18-6.65-1.78a46.53,46.53,0,0,0-7.68-1.28c-1.91-.09-3.92-.2-4.48-.24a9.7,9.7,0,0,1-1.27-.13l-.36-.11c-.07,0,0-.06.08-.09l.46-.13a7.75,7.75,0,0,1,1.18-.12c.51,0,1.38,0,1.93,0s2.14,0,3.53.12,4.34.34,6.55.62,6.26.73,9,1l1.55.17c2.73.3,6.54.67,8.46.82s5.08.39,7,.51,5,.28,6.72.35,4,.14,5,.16l2.62,0,2.62,0c1,0,3.19-.1,4.95-.16s4.79-.23,6.72-.35,5.1-.35,7-.51,5.73-.52,8.46-.82l1.56-.17c2.73-.3,6.78-.76,9-1s5.16-.55,6.55-.62,3-.12,3.54-.12,1.41,0,1.92,0a7.75,7.75,0,0,1,1.18.12l.46.13c.11,0,.15.07.08.09l-.36.11a9.27,9.27,0,0,1-1.26.13c-.56,0-2.58.15-4.48.24a46.47,46.47,0,0,0-7.69,1.28c-2.32.6-5.31,1.41-6.65,1.78s-3.62,1.08-5.08,1.58l-5,1.67c-1.28.42-3.75,1.14-5.5,1.59a56.92,56.92,0,0,1-6,1.17c-1.57.2-4.48.45-6.46.56s-4,.2-4.59.2Z"
        transform="translate(-172.97 -150.5)" />
    <path class="cls-19"
        d="M246.57,244.66c-.55,0-2.61-.09-4.6-.2s-4.89-.36-6.46-.56a56.92,56.92,0,0,1-6-1.17c-1.75-.45-4.22-1.17-5.49-1.59s-3.51-1.18-5-1.67-3.74-1.21-5.08-1.58-4.32-1.18-6.65-1.78a46.53,46.53,0,0,0-7.68-1.28c-1.91-.09-3.92-.2-4.48-.24a9.7,9.7,0,0,1-1.27-.13l-.36-.11c-.07,0,0-.06.08-.09l.46-.13a7.75,7.75,0,0,1,1.18-.12c.51,0,1.38,0,1.93,0s2.14,0,3.53.12,4.34.34,6.55.62,6.26.73,9,1l1.55.17c2.73.3,6.54.67,8.46.82s5.08.39,7,.51,5,.28,6.72.35,4,.14,5,.16l2.62,0,2.62,0c1,0,3.19-.1,4.95-.16s4.79-.23,6.72-.35,5.1-.35,7-.51,5.73-.52,8.46-.82l1.56-.17c2.73-.3,6.78-.76,9-1s5.16-.55,6.55-.62,3-.12,3.54-.12,1.41,0,1.92,0a7.75,7.75,0,0,1,1.18.12l.46.13c.11,0,.15.07.08.09l-.36.11a9.27,9.27,0,0,1-1.26.13c-.56,0-2.58.15-4.48.24a46.47,46.47,0,0,0-7.69,1.28c-2.32.6-5.31,1.41-6.65,1.78s-3.62,1.08-5.08,1.58l-5,1.67c-1.28.42-3.75,1.14-5.5,1.59a56.92,56.92,0,0,1-6,1.17c-1.57.2-4.48.45-6.46.56s-4,.2-4.59.2Z"
        transform="translate(-172.97 -150.5)" />
    <line class="cls-20" x1="27.11" y1="85.03" x2="27.11" y2="98.88" />
    <line class="cls-8" x1="123.06" y1="83.07" x2="123.06" y2="99.54" />
    <line class="cls-8" x1="77.21" y1="85.63" x2="77.21" y2="97.36" />
    <rect class="cls-9" x="111.07" y="139.47" width="20.58" height="9.86" rx="1.15" />
    <rect class="cls-10" x="111.07" y="139.47" width="20.58" height="9.86" rx="1.15" />
    <rect class="cls-11" x="48.56" y="16.53" width="6.66" height="2.32" />
    <circle class="cls-11" cx="50.07" cy="18.85" r="1.51" />
    <circle class="cls-11" cx="53.71" cy="18.85" r="1.51" />
    <circle class="cls-14" cx="53.71" cy="18.85" r="0.85" />
    <circle class="cls-21" cx="50.07" cy="18.85" r="0.85" />
    <rect class="cls-11" x="39.54" y="19.89" width="7.33" height="3.72" />
    <rect class="cls-11" x="93.61" y="16.55" width="6.66" height="2.32" />
    <circle class="cls-11" cx="98.76" cy="18.87" r="1.51" />
    <circle class="cls-11" cx="95.12" cy="18.87" r="1.51" />
    <circle class="cls-14" cx="95.12" cy="18.87" r="0.85" />
    <circle class="cls-21" cx="98.76" cy="18.87" r="0.85" />
    <rect class="cls-11" x="274.92" y="170.41" width="7.33" height="3.72"
        transform="translate(384.2 194.05) rotate(-180)" />
</svg>