<?xml version="1.0" encoding="utf-8"?>
<!-- Generator: Adobe Illustrator 26.0.3, SVG Export Plug-In . SVG Version: 6.00 Build 0)  -->
<svg version="1.1" id="图层_1" xmlns="http://www.w3.org/2000/svg" xmlns:xlink="http://www.w3.org/1999/xlink" x="0px" y="0px"
	 viewBox="0 0 50 50" style="enable-background:new 0 0 50 50;" xml:space="preserve">
<style type="text/css">
	.st0{fill:#FFFFFF;}
</style>
<g>
	<path class="st0" d="M35.2,41c-0.1,0-0.3,0-0.6-0.2l-6.4-3.4c-0.8-0.4-2-0.7-3.1-0.7c-1.2,0-2.3,0.2-3.1,0.7l-6.4,3.4
		C15.1,41,14.9,41,14.8,41c-0.1,0-0.2-0.2-0.1-0.7l1.2-7.2c0.3-1.9-0.5-4.6-1.9-5.9l-5.2-5.1c-0.3-0.3-0.4-0.5-0.4-0.6
		c0,0,0.2-0.2,0.7-0.2l7.2-1c2-0.3,4.2-1.9,5.1-3.7l3.2-6.5C24.8,9.6,25,9.5,25,9.5c0,0,0.2,0.1,0.4,0.6l3.2,6.5
		c0.9,1.8,3.1,3.4,5,3.7l7.2,1.1c0.5,0.1,0.6,0.2,0.7,0.2c0,0-0.1,0.2-0.4,0.6L36,27.2c-1.4,1.4-2.3,4-1.9,5.9l1.2,7.2
		C35.3,40.8,35.2,41,35.2,41L35.2,41z"/>
	<path d="M25,11.4l2.8,5.6c1,2.1,3.5,3.9,5.8,4.2l6.2,0.9l-4.5,4.3c-1.7,1.6-2.6,4.5-2.2,6.8l1,6.1l-5.5-2.9c-1-0.5-2.3-0.8-3.6-0.8
		c-1.3,0-2.6,0.3-3.6,0.8l-5.5,2.9l1.1-6.1c0.4-2.3-0.6-5.2-2.2-6.8l-4.5-4.4l6.2-0.9c2.3-0.3,4.8-2.1,5.8-4.2L25,11.4 M25,8.5
		c-0.5,0-1,0.4-1.3,1.1l-3.2,6.5c-0.7,1.5-2.7,2.9-4.3,3.1l-7.2,1c-1.6,0.2-2,1.4-0.8,2.5l5.2,5.1c1.2,1.2,1.9,3.4,1.6,5.1l-1.2,7.2
		C13.5,41.3,14,42,14.8,42c0.3,0,0.7-0.1,1.1-0.3l6.4-3.4c0.7-0.4,1.7-0.6,2.6-0.6c1,0,1.9,0.2,2.7,0.6l6.4,3.4
		c0.4,0.2,0.8,0.3,1.1,0.3c0.8,0,1.3-0.7,1.1-1.9L35,33c-0.3-1.6,0.5-3.9,1.6-5l5.2-5.1c1.2-1.2,0.8-2.3-0.8-2.5l-7.2-1.1
		c-1.6-0.2-3.6-1.6-4.3-3.1l-3.2-6.5C26,8.9,25.5,8.5,25,8.5L25,8.5z"/>
</g>
</svg>
