<?xml version="1.0" encoding="UTF-8" standalone="no"?>
<svg version="1.1" id="svg2" xml:space="preserve" width="255.46001" height="255.88933" viewBox="0 0 255.46001 255.88933"
  sodipodi:docname="NJM_Line_10_icon.svg" inkscape:version="1.2 (dc2aedaf03, 2022-05-15)"
  xmlns:inkscape="http://www.inkscape.org/namespaces/inkscape"
  xmlns:sodipodi="http://sodipodi.sourceforge.net/DTD/sodipodi-0.dtd" xmlns="http://www.w3.org/2000/svg"
  xmlns:svg="http://www.w3.org/2000/svg" xmlns:rdf="http://www.w3.org/1999/02/22-rdf-syntax-ns#"
  xmlns:cc="http://creativecommons.org/ns#" xmlns:dc="http://purl.org/dc/elements/1.1/">
  <metadata id="metadata8">
    <rdf:RDF>
      <cc:Work rdf:about="">
        <dc:format>image/svg+xml</dc:format>
        <dc:type rdf:resource="http://purl.org/dc/dcmitype/StillImage" />
      </cc:Work>
    </rdf:RDF>
  </metadata>
  <defs id="defs6">
    <clipPath clipPathUnits="userSpaceOnUse" id="clipPath20">
      <path d="M 0,191.917 H 191.595 V 0 H 0 Z" id="path18" />
    </clipPath>
  </defs>
  <sodipodi:namedview pagecolor="#ffffff" bordercolor="#666666" borderopacity="1" objecttolerance="10"
    gridtolerance="10" guidetolerance="10" inkscape:pageopacity="0" inkscape:pageshadow="2" inkscape:window-width="1920"
    inkscape:window-height="991" id="namedview4" inkscape:showpageshadow="2" inkscape:pagecheckerboard="0"
    inkscape:deskcolor="#d1d1d1" showgrid="false" inkscape:zoom="3.2670374" inkscape:cx="127.79162"
    inkscape:cy="128.09771" inkscape:window-x="-9" inkscape:window-y="-9" inkscape:window-maximized="1"
    inkscape:current-layer="g14" />
  <g id="g10" inkscape:groupmode="layer" inkscape:label="Line10"
    transform="matrix(1.3333333,0,0,-1.3333333,0,255.88933)">
    <path d="M 0,0 H 191.595 V 191.917 H 0 Z" style="fill:#B9975B;fill-opacity:1;fill-rule:nonzero;stroke:none"
      id="path12" />
    <g id="g14">
      <g id="g16" clip-path="url(#clipPath20)" transform="translate(2.1002506,2.0997514)">
        <g id="g22" transform="translate(47.979,35.27)">
          <path
            d="m 0,0 v 100.433 c -2.325,-2.325 -6.253,-4.927 -11.787,-7.808 -5.533,-2.88 -10.65,-4.902 -15.349,-6.063 v 14.553 c 6.216,1.717 12.86,4.459 19.935,8.224 7.074,3.764 12.507,7.314 16.297,10.649 h 5.609 L 14.705,0 Z"
            style="fill:#ffffff;fill-opacity:1;fill-rule:nonzero;stroke:none" id="path24" />
        </g>
        <g id="g26" transform="translate(102.3413,92.3462)">
          <path
            d="m 0,0 c 0,-31.179 7.908,-46.768 23.725,-46.768 15.564,0 23.346,15.842 23.346,47.526 0,32.794 -7.631,49.193 -22.891,49.193 C 8.06,49.951 0,33.3 0,0 m -15.16,-0.682 c 0,20.718 3.436,36.394 10.309,47.033 6.872,10.636 16.827,15.955 29.865,15.955 24.861,0 37.292,-20.062 37.292,-60.184 0,-19.809 -3.499,-34.956 -10.498,-45.441 -6.999,-10.486 -16.815,-15.728 -29.448,-15.728 -11.926,0 -21.16,4.977 -27.704,14.932 -6.544,9.955 -9.816,24.432 -9.816,43.433"
            style="fill:#ffffff;fill-opacity:1;fill-rule:nonzero;stroke:none" id="path28" />
        </g>
      </g>
    </g>
  </g>
</svg>