<?xml version="1.0" encoding="UTF-8" standalone="no"?>
<svg
   xmlns:dc="http://purl.org/dc/elements/1.1/"
   xmlns:cc="http://creativecommons.org/ns#"
   xmlns:rdf="http://www.w3.org/1999/02/22-rdf-syntax-ns#"
   xmlns:svg="http://www.w3.org/2000/svg"
   xmlns="http://www.w3.org/2000/svg"
   xmlns:sodipodi="http://sodipodi.sourceforge.net/DTD/sodipodi-0.dtd"
   xmlns:inkscape="http://www.inkscape.org/namespaces/inkscape"
   version="1.1"
   id="svg2"
   xml:space="preserve"
   width="152.42267"
   height="255.88933"
   viewBox="0 0 152.42267 255.88933"
   sodipodi:docname="Line3.ai"><metadata
     id="metadata8"><rdf:RDF><cc:Work
         rdf:about=""><dc:format>image/svg+xml</dc:format><dc:type
           rdf:resource="http://purl.org/dc/dcmitype/StillImage" /></cc:Work></rdf:RDF></metadata><defs
     id="defs6"><clipPath
       clipPathUnits="userSpaceOnUse"
       id="clipPath20"><path
         d="M 0,191.917 H 114.317 V 0 H 0 Z"
         id="path18" /></clipPath></defs><sodipodi:namedview
     pagecolor="#ffffff"
     bordercolor="#666666"
     borderopacity="1"
     objecttolerance="10"
     gridtolerance="10"
     guidetolerance="10"
     inkscape:pageopacity="0"
     inkscape:pageshadow="2"
     inkscape:window-width="640"
     inkscape:window-height="480"
     id="namedview4" /><g
     id="g10"
     inkscape:groupmode="layer"
     inkscape:label="Line3"
     transform="matrix(1.3333333,0,0,-1.3333333,0,255.88933)"><path
       d="M 0,0 H 114.317 V 191.917 H 0 Z"
       style="fill:#0e904f;fill-opacity:1;fill-rule:nonzero;stroke:none"
       id="path12" /><g
       id="g14"><g
         id="g16"
         clip-path="url(#clipPath20)"><g
           id="g22"
           transform="translate(24.082,53.8066)"><path
             d="m 0,0 c 8.034,-6.215 17.104,-9.323 27.211,-9.323 8.085,0 14.49,1.982 19.215,5.95 4.724,3.966 7.087,9.285 7.087,15.956 0,14.856 -10.638,22.284 -31.911,22.284 h -9.778 v 12.279 h 9.323 c 18.848,0 28.273,6.974 28.273,20.92 0,12.886 -7.201,19.329 -21.602,19.329 -8.237,0 -15.994,-2.779 -23.27,-8.338 V 93.08 c 7.68,4.446 16.649,6.67 26.908,6.67 10.005,0 18.04,-2.615 24.104,-7.845 6.064,-5.23 9.096,-12.014 9.096,-20.352 0,-15.362 -7.834,-25.24 -23.498,-29.637 v -0.303 c 8.489,-0.909 15.197,-3.904 20.125,-8.982 4.926,-5.078 7.39,-11.408 7.39,-18.987 0,-10.562 -3.803,-19.077 -11.408,-25.544 -7.606,-6.469 -17.724,-9.703 -30.357,-9.703 -11.117,0 -20.086,2.072 -26.908,6.216 z"
             style="fill:#ffffff;fill-opacity:1;fill-rule:nonzero;stroke:none"
             id="path24" /></g></g></g></g></svg>
