<?xml version="1.0" encoding="UTF-8" standalone="no"?>
<svg
   xmlns:dc="http://purl.org/dc/elements/1.1/"
   xmlns:cc="http://creativecommons.org/ns#"
   xmlns:rdf="http://www.w3.org/1999/02/22-rdf-syntax-ns#"
   xmlns:svg="http://www.w3.org/2000/svg"
   xmlns="http://www.w3.org/2000/svg"
   xmlns:sodipodi="http://sodipodi.sourceforge.net/DTD/sodipodi-0.dtd"
   xmlns:inkscape="http://www.inkscape.org/namespaces/inkscape"
   version="1.1"
   id="svg2"
   xml:space="preserve"
   width="255.46001"
   height="255.88933"
   viewBox="0 0 255.46001 255.88933"
   sodipodi:docname="LineS7.ai"><metadata
     id="metadata8"><rdf:RDF><cc:Work
         rdf:about=""><dc:format>image/svg+xml</dc:format><dc:type
           rdf:resource="http://purl.org/dc/dcmitype/StillImage" /></cc:Work></rdf:RDF></metadata><defs
     id="defs6"><clipPath
       clipPathUnits="userSpaceOnUse"
       id="clipPath20"><path
         d="M 0,191.917 H 191.595 V 0 H 0 Z"
         id="path18" /></clipPath></defs><sodipodi:namedview
     pagecolor="#ffffff"
     bordercolor="#666666"
     borderopacity="1"
     objecttolerance="10"
     gridtolerance="10"
     guidetolerance="10"
     inkscape:pageopacity="0"
     inkscape:pageshadow="2"
     inkscape:window-width="640"
     inkscape:window-height="480"
     id="namedview4" /><g
     id="g10"
     inkscape:groupmode="layer"
     inkscape:label="LineS7"
     transform="matrix(1.3333333,0,0,-1.3333333,0,255.88933)"><path
       d="M 0,0 H 191.595 V 191.917 H 0 Z"
       style="fill:#e097a9;fill-opacity:1;fill-rule:nonzero;stroke:none"
       id="path12" /><g
       id="g14"><g
         id="g16"
         clip-path="url(#clipPath20)"><g
           id="g22"
           transform="translate(22.1352,57.3271)"><path
             d="m 0,0 c 3.587,-3.134 8.388,-5.711 14.402,-7.731 6.013,-2.022 11.723,-3.032 17.13,-3.032 16.473,0 24.71,5.861 24.71,17.585 0,3.284 -0.885,6.241 -2.653,8.868 -1.769,2.627 -4.194,4.952 -7.276,6.974 -3.083,2.02 -8.869,5.128 -17.358,9.323 C 17.18,37.848 9.424,43.292 5.685,48.321 1.945,53.349 0.076,59.097 0.076,65.565 c 0,9.752 3.915,17.484 11.749,23.195 7.832,5.71 17.71,8.565 29.636,8.565 11.673,0 20.239,-1.415 25.696,-4.245 V 76.556 c -7.075,4.901 -16.019,7.353 -26.832,7.353 -7.177,0 -13.026,-1.504 -17.548,-4.51 -4.523,-3.007 -6.783,-7.19 -6.783,-12.545 0,-4.75 1.565,-8.616 4.699,-11.597 3.133,-2.982 9.93,-7.049 20.39,-12.203 11.521,-5.509 19.581,-11.017 24.179,-16.525 4.598,-5.508 6.898,-11.698 6.898,-18.57 0,-10.309 -3.74,-18.218 -11.218,-23.725 -7.48,-5.508 -17.864,-8.262 -31.153,-8.262 -4.65,0 -10.07,0.644 -16.259,1.933 -6.191,1.288 -10.7,2.892 -13.53,4.813 z"
             style="fill:#ffffff;fill-opacity:1;fill-rule:nonzero;stroke:none"
             id="path24" /></g><g
           id="g26"
           transform="translate(177.2636,143.5097)"><path
             d="m 0,0 c -12.33,-21.527 -22.02,-41.45 -29.069,-59.767 -7.049,-18.318 -11.407,-34.476 -13.075,-48.473 h -15.462 c 1.868,13.796 6.291,29.535 13.264,47.222 6.973,17.686 16.297,36.712 27.969,57.077 H -74.585 V 9.171 L 0,9.171 Z"
             style="fill:#ffffff;fill-opacity:1;fill-rule:nonzero;stroke:none"
             id="path28" /></g></g></g></g></svg>
