<?xml version="1.0" encoding="UTF-8" standalone="no"?>
<svg
   xmlns:dc="http://purl.org/dc/elements/1.1/"
   xmlns:cc="http://creativecommons.org/ns#"
   xmlns:rdf="http://www.w3.org/1999/02/22-rdf-syntax-ns#"
   xmlns:svg="http://www.w3.org/2000/svg"
   xmlns="http://www.w3.org/2000/svg"
   viewBox="0 0 255.46001 255.88933"
   height="255.88933"
   width="255.46001"
   xml:space="preserve"
   id="svg2"
   version="1.1"><metadata
     id="metadata8"><rdf:RDF><cc:Work
         rdf:about=""><dc:format>image/svg+xml</dc:format><dc:type
           rdf:resource="http://purl.org/dc/dcmitype/StillImage" /></cc:Work></rdf:RDF></metadata><defs
     id="defs6"><clipPath
       id="clipPath20"
       clipPathUnits="userSpaceOnUse"><path
         id="path18"
         d="M 0,191.917 H 191.595 V 0 H 0 Z" /></clipPath></defs><g
     transform="matrix(1.3333333,0,0,-1.3333333,0,255.88933)"
     id="g10"><path
       id="path12"
       style="fill:#ef7d1b;fill-opacity:1;fill-rule:nonzero;stroke:none"
       d="M 0,0 H 191.595 V 191.917 H 0 Z" /><g
       id="g14"><g
         clip-path="url(#clipPath20)"
         id="g16"><g
           transform="translate(21.3427,59.5537)"
           id="g22"><path
             id="path24"
             style="fill:#ffffff;fill-opacity:1;fill-rule:nonzero;stroke:none"
             d="m 0,0 c 3.495,-3.053 8.17,-5.563 14.028,-7.531 5.857,-1.969 11.419,-2.953 16.687,-2.953 16.045,0 24.069,5.709 24.069,17.129 0,3.199 -0.862,6.079 -2.584,8.638 -1.724,2.559 -4.086,4.823 -7.088,6.793 -3.003,1.968 -8.638,4.995 -16.908,9.081 C 16.735,36.866 9.18,42.17 5.538,47.068 1.895,51.965 0.074,57.564 0.074,63.865 c 0,9.499 3.814,17.03 11.444,22.593 7.629,5.562 17.252,8.343 28.869,8.343 11.369,0 19.713,-1.379 25.029,-4.135 V 74.57 c -6.892,4.774 -15.604,7.162 -26.137,7.162 -6.99,0 -12.688,-1.465 -17.092,-4.393 -4.406,-2.929 -6.608,-7.002 -6.608,-12.219 0,-4.627 1.525,-8.392 4.577,-11.296 3.052,-2.905 9.673,-6.867 19.862,-11.887 C 51.24,36.571 59.09,31.206 63.57,25.841 c 4.478,-5.365 6.719,-11.395 6.719,-18.089 0,-10.041 -3.644,-17.745 -10.928,-23.109 -7.285,-5.366 -17.4,-8.048 -30.344,-8.048 -4.53,0 -9.809,0.628 -15.838,1.883 -6.03,1.255 -10.423,2.817 -13.179,4.689 z" /></g><g
           transform="translate(120.1718,123.9355)"
           id="g26"><path
             id="path28"
             style="fill:#ffffff;fill-opacity:1;fill-rule:nonzero;stroke:none"
             d="m 0,0 c 0,-5.12 1.82,-9.513 5.464,-13.179 3.641,-3.667 8.096,-5.501 13.363,-5.501 5.168,0 9.635,1.846 13.401,5.538 3.765,3.691 5.647,8.072 5.647,13.142 0,5.168 -1.808,9.549 -5.426,13.142 -3.617,3.592 -8.158,5.39 -13.622,5.39 -5.415,0 -9.906,-1.761 -13.474,-5.279 C 1.784,9.733 0,5.316 0,0 m -4.135,-53.307 c 0,-6.793 2.092,-12.232 6.276,-16.317 4.183,-4.086 9.746,-6.128 16.686,-6.128 6.793,0 12.341,2.079 16.65,6.239 4.306,4.159 6.46,9.561 6.46,16.206 0,6.3 -2.178,11.603 -6.535,15.911 -4.356,4.307 -9.881,6.46 -16.575,6.46 -6.645,0 -12.134,-2.104 -16.464,-6.313 -4.332,-4.208 -6.498,-9.561 -6.498,-16.058 m -14.176,-0.665 c 0,6.596 1.969,12.674 5.907,18.237 3.937,5.562 9.008,9.525 15.209,11.887 -4.972,2.806 -8.909,6.398 -11.813,10.78 -2.905,4.38 -4.356,9.13 -4.356,14.25 0,5.413 1.39,10.36 4.172,14.839 2.78,4.479 6.645,7.999 11.591,10.559 4.947,2.558 10.398,3.839 16.354,3.839 6.005,0 11.493,-1.268 16.465,-3.802 4.971,-2.536 8.835,-6.043 11.592,-10.521 2.756,-4.48 4.134,-9.451 4.134,-14.914 0,-5.021 -1.416,-9.735 -4.245,-14.14 -2.831,-4.405 -6.756,-8.036 -11.776,-10.89 6.202,-2.412 11.246,-6.399 15.135,-11.961 3.888,-5.563 5.833,-11.617 5.833,-18.163 0,-6.497 -1.551,-12.318 -4.652,-17.461 -3.1,-5.144 -7.506,-9.143 -13.216,-11.998 -5.71,-2.854 -12.133,-4.282 -19.27,-4.282 -7.087,0 -13.463,1.428 -19.122,4.282 -5.661,2.855 -10.067,6.867 -13.216,12.035 -3.151,5.168 -4.726,10.976 -4.726,17.424" /></g></g></g></g></svg>