<!-- <?xml version="1.0" encoding="utf-8"?> -->
<!-- Generator: Adobe Illustrator 26.0.3, SVG Export Plug-In . SVG Version: 6.00 Build 0)  -->
<svg version="1.1" id="图层_1" xmlns="http://www.w3.org/2000/svg" xmlns:xlink="http://www.w3.org/1999/xlink" x="0px"
	y="0px" viewBox="0 0 150 60" style="enable-background:new 0 0 150 60;" xml:space="preserve">
	<style type="text/css">
		.st0 {
			fill: #E6E6E6;
		}

		.st1 {
			fill: none;
			stroke: #B3B3B3;
			stroke-width: 0.2;
			stroke-miterlimit: 10;
		}

		.st2 {
			fill: #E6E6E6;
			stroke: #999999;
			stroke-width: 0.2;
			stroke-miterlimit: 10;
		}

		.st3 {
			font-family: 'MicrosoftYaHei';
		}

		.st4 {
			font-size: 12px;
		}

		.st5 {
			font-family: 'MicrosoftYaHeiLight';
		}

		.st6 {
			font-size: 10px;
		}

		.st7 {
			font-size: 8px;
		}
	</style>
	<g>
		<path class="st0" d="M148.2,30V4.6c0-1.6-1.3-3-3-3h-135c-1.7,0-3,1.4-3,3v16.9c0,1.6-1,4-2.1,5.1l-1.3,1.3c-1.2,1.2-1.2,3.1,0,4.2
		l1.3,1.3c1.2,1.2,2.1,3.5,2.1,5.1L7.3,55.8c0,1.6,1.3,3,3,3h135c1.7,0,3-1.3,3-3V29.5" />
		<path class="st1" d="M148.2,30V4.6c0-1.6-1.3-3-3-3h-135c-1.7,0-3,1.4-3,3v16.9c0,1.6-1,4-2.1,5.1l-1.3,1.3c-1.2,1.2-1.2,3.1,0,4.2
		l1.3,1.3c1.2,1.2,2.1,3.5,2.1,5.1L7.3,55.8c0,1.6,1.3,3,3,3h135c1.7,0,3-1.3,3-3V29.5" />
	</g>
	<line class="st2" x1="8.3" y1="17.4" x2="149.2" y2="17.4" />
	<text transform="matrix(1 0 0 1 13.124 13.7969)" class="st3 st4">开往: 马群</text>
	<text transform="matrix(1 0 0 1 45.3097 55.971)" class="st5 st6">到达终点站时间: </text>
	<text transform="matrix(1 0 0 1 112.0158 13.8339)" class="st3 st6">普通车</text>
	<text transform="matrix(1 0 0 1 -2.818 37.6996)" class="st5 st7"> </text>
	<text transform="matrix(1 0 0 1 17.5483 28.0967)" class="st5 st6">前方到站: </text>
	<text transform="matrix(1 0 0 1 18.208 41.7454)" class="st5 st6">到站时间: </text>
</svg>